{
	"asset":{
		"generator":"Khronos glTF Blender I/O v3.5.30",
		"version":"2.0"
	},
	"scene":0,
	"scenes":[
		{
			"name":"Scene",
			"nodes":[
				0,
				1,
				2,
				3,
				4,
				5,
				6
			]
		}
	],
	"nodes":[
		{
			"mesh":0,
			"name":"Rock",
			"scale":[
				1,
				1,
				3.084259033203125
			]
		},
		{
			"mesh":1,
			"name":"Plane",
			"rotation":[
				-1,
				0,
				0,
				1.6292067073209182e-07
			],
			"scale":[
				100,
				100,
				100
			]
		},
		{
			"mesh":2,
			"name":"Rock.001",
			"rotation":[
				0,
				-0.6496096849441528,
				0,
				0.7602680325508118
			],
			"scale":[
				1.3655129671096802,
				3.127321243286133,
				1.3912838697433472
			],
			"translation":[
				17.24208641052246,
				1.7370060682296753,
				-0.9543946981430054
			]
		},
		{
			"mesh":3,
			"name":"Rock.002",
			"rotation":[
				0,
				0.21226848661899567,
				0,
				0.9772114157676697
			],
			"scale":[
				0.7032385468482971,
				0.6839284300804138,
				0.6337442994117737
			],
			"translation":[
				7.974177837371826,
				0,
				0
			]
		},
		{
			"mesh":4,
			"name":"Rock.003",
			"rotation":[
				0,
				0.685360848903656,
				0,
				0.7282036542892456
			],
			"scale":[
				1.8082441091537476,
				1.8082441091537476,
				5.577093124389648
			],
			"translation":[
				25.18854522705078,
				0.7234342694282532,
				-12.404032707214355
			]
		},
		{
			"name":"Rock.004",
			"scale":[
				0.7060880661010742,
				1,
				1
			]
		},
		{
			"mesh":5,
			"name":"Rock.005",
			"scale":[
				0.7060880661010742,
				1,
				1
			]
		}
	],
	"materials":[
		{
			"doubleSided":true,
			"name":"Material.001",
			"pbrMetallicRoughness":{
				"baseColorFactor":[
					0.1106889471411705,
					0.05250234156847,
					0.025048382580280304,
					1
				],
				"metallicFactor":0,
				"roughnessFactor":0.878238320350647
			}
		},
		{
			"doubleSided":true,
			"name":"Sand",
			"pbrMetallicRoughness":{
				"baseColorFactor":[
					0.8000000715255737,
					0.4463813900947571,
					0.09361818432807922,
					1
				],
				"metallicFactor":0,
				"roughnessFactor":0.5
			}
		},
		{
			"doubleSided":true,
			"name":"Material.003",
			"pbrMetallicRoughness":{
				"baseColorFactor":[
					0.1106889471411705,
					0.05250234156847,
					0.025048382580280304,
					1
				],
				"metallicFactor":0,
				"roughnessFactor":0.878238320350647
			}
		},
		{
			"doubleSided":true,
			"name":"Material.004",
			"pbrMetallicRoughness":{
				"baseColorFactor":[
					0.1106889471411705,
					0.05250234156847,
					0.025048382580280304,
					1
				],
				"metallicFactor":0,
				"roughnessFactor":0.878238320350647
			}
		},
		{
			"doubleSided":true,
			"name":"Material.005",
			"pbrMetallicRoughness":{
				"baseColorFactor":[
					0.1106889471411705,
					0.05250234156847,
					0.025048382580280304,
					1
				],
				"metallicFactor":0,
				"roughnessFactor":0.878238320350647
			}
		}
	],
	"meshes":[
		{
			"name":"Cylinder",
			"primitives":[
				{
					"attributes":{
						"POSITION":0,
						"TEXCOORD_0":1,
						"NORMAL":2
					},
					"indices":3,
					"material":0
				}
			]
		},
		{
			"name":"Plane",
			"primitives":[
				{
					"attributes":{
						"POSITION":4,
						"TEXCOORD_0":5,
						"NORMAL":6
					},
					"indices":7,
					"material":1
				}
			]
		},
		{
			"name":"Cylinder.001",
			"primitives":[
				{
					"attributes":{
						"POSITION":8,
						"TEXCOORD_0":9,
						"NORMAL":10
					},
					"indices":11,
					"material":2
				}
			]
		},
		{
			"name":"Cylinder.002",
			"primitives":[
				{
					"attributes":{
						"POSITION":12,
						"TEXCOORD_0":13,
						"NORMAL":14
					},
					"indices":15,
					"material":3
				}
			]
		},
		{
			"name":"Cylinder.003",
			"primitives":[
				{
					"attributes":{
						"POSITION":16,
						"TEXCOORD_0":17,
						"NORMAL":18
					},
					"indices":19,
					"material":4
				}
			]
		},
		{
			"name":"Cylinder.005",
			"primitives":[
				{
					"attributes":{
						"POSITION":20,
						"TEXCOORD_0":21,
						"NORMAL":22
					},
					"indices":23,
					"material":0
				}
			]
		}
	],
	"accessors":[
		{
			"bufferView":0,
			"componentType":5126,
			"count":288,
			"max":[
				1.3890762329101562,
				2.559807538986206,
				1.4907323122024536
			],
			"min":[
				-1.810309648513794,
				-1.05287766456604,
				-1.5228664875030518
			],
			"type":"VEC3"
		},
		{
			"bufferView":1,
			"componentType":5126,
			"count":288,
			"type":"VEC2"
		},
		{
			"bufferView":2,
			"componentType":5126,
			"count":288,
			"type":"VEC3"
		},
		{
			"bufferView":3,
			"componentType":5123,
			"count":852,
			"type":"SCALAR"
		},
		{
			"bufferView":4,
			"componentType":5126,
			"count":4,
			"max":[
				1,
				0,
				1
			],
			"min":[
				-1,
				0,
				-1
			],
			"type":"VEC3"
		},
		{
			"bufferView":5,
			"componentType":5126,
			"count":4,
			"type":"VEC2"
		},
		{
			"bufferView":6,
			"componentType":5126,
			"count":4,
			"type":"VEC3"
		},
		{
			"bufferView":7,
			"componentType":5123,
			"count":6,
			"type":"SCALAR"
		},
		{
			"bufferView":8,
			"componentType":5126,
			"count":198,
			"max":[
				1.3890762329101562,
				2.559807538986206,
				1.4907323122024536
			],
			"min":[
				-1.810309648513794,
				-1.05287766456604,
				-1.5228664875030518
			],
			"type":"VEC3"
		},
		{
			"bufferView":9,
			"componentType":5126,
			"count":198,
			"type":"VEC2"
		},
		{
			"bufferView":10,
			"componentType":5126,
			"count":198,
			"type":"VEC3"
		},
		{
			"bufferView":11,
			"componentType":5123,
			"count":852,
			"type":"SCALAR"
		},
		{
			"bufferView":12,
			"componentType":5126,
			"count":512,
			"max":[
				1.3890762329101562,
				5.124667644500732,
				1.4907323122024536
			],
			"min":[
				-1.810309648513794,
				-1.05287766456604,
				-1.5228664875030518
			],
			"type":"VEC3"
		},
		{
			"bufferView":13,
			"componentType":5126,
			"count":512,
			"type":"VEC2"
		},
		{
			"bufferView":14,
			"componentType":5126,
			"count":512,
			"type":"VEC3"
		},
		{
			"bufferView":15,
			"componentType":5123,
			"count":1428,
			"type":"SCALAR"
		},
		{
			"bufferView":16,
			"componentType":5126,
			"count":274,
			"max":[
				1.3890762329101562,
				2.559807538986206,
				1.39260995388031
			],
			"min":[
				-1.9105478525161743,
				-1.05287766456604,
				-1.4472105503082275
			],
			"type":"VEC3"
		},
		{
			"bufferView":17,
			"componentType":5126,
			"count":274,
			"type":"VEC2"
		},
		{
			"bufferView":18,
			"componentType":5126,
			"count":274,
			"type":"VEC3"
		},
		{
			"bufferView":19,
			"componentType":5123,
			"count":822,
			"type":"SCALAR"
		},
		{
			"bufferView":20,
			"componentType":5126,
			"count":1412,
			"max":[
				1.9609265327453613,
				4.205503463745117,
				-31.29196548461914
			],
			"min":[
				-1.9609265327453613,
				-1.0083692073822021,
				-35.21381759643555
			],
			"type":"VEC3"
		},
		{
			"bufferView":21,
			"componentType":5126,
			"count":1412,
			"type":"VEC2"
		},
		{
			"bufferView":22,
			"componentType":5126,
			"count":1412,
			"type":"VEC3"
		},
		{
			"bufferView":23,
			"componentType":5123,
			"count":2232,
			"type":"SCALAR"
		}
	],
	"bufferViews":[
		{
			"buffer":0,
			"byteLength":3456,
			"byteOffset":0,
			"target":34962
		},
		{
			"buffer":0,
			"byteLength":2304,
			"byteOffset":3456,
			"target":34962
		},
		{
			"buffer":0,
			"byteLength":3456,
			"byteOffset":5760,
			"target":34962
		},
		{
			"buffer":0,
			"byteLength":1704,
			"byteOffset":9216,
			"target":34963
		},
		{
			"buffer":0,
			"byteLength":48,
			"byteOffset":10920,
			"target":34962
		},
		{
			"buffer":0,
			"byteLength":32,
			"byteOffset":10968,
			"target":34962
		},
		{
			"buffer":0,
			"byteLength":48,
			"byteOffset":11000,
			"target":34962
		},
		{
			"buffer":0,
			"byteLength":12,
			"byteOffset":11048,
			"target":34963
		},
		{
			"buffer":0,
			"byteLength":2376,
			"byteOffset":11060,
			"target":34962
		},
		{
			"buffer":0,
			"byteLength":1584,
			"byteOffset":13436,
			"target":34962
		},
		{
			"buffer":0,
			"byteLength":2376,
			"byteOffset":15020,
			"target":34962
		},
		{
			"buffer":0,
			"byteLength":1704,
			"byteOffset":17396,
			"target":34963
		},
		{
			"buffer":0,
			"byteLength":6144,
			"byteOffset":19100,
			"target":34962
		},
		{
			"buffer":0,
			"byteLength":4096,
			"byteOffset":25244,
			"target":34962
		},
		{
			"buffer":0,
			"byteLength":6144,
			"byteOffset":29340,
			"target":34962
		},
		{
			"buffer":0,
			"byteLength":2856,
			"byteOffset":35484,
			"target":34963
		},
		{
			"buffer":0,
			"byteLength":3288,
			"byteOffset":38340,
			"target":34962
		},
		{
			"buffer":0,
			"byteLength":2192,
			"byteOffset":41628,
			"target":34962
		},
		{
			"buffer":0,
			"byteLength":3288,
			"byteOffset":43820,
			"target":34962
		},
		{
			"buffer":0,
			"byteLength":1644,
			"byteOffset":47108,
			"target":34963
		},
		{
			"buffer":0,
			"byteLength":16944,
			"byteOffset":48752,
			"target":34962
		},
		{
			"buffer":0,
			"byteLength":11296,
			"byteOffset":65696,
			"target":34962
		},
		{
			"buffer":0,
			"byteLength":16944,
			"byteOffset":76992,
			"target":34962
		},
		{
			"buffer":0,
			"byteLength":4464,
			"byteOffset":93936,
			"target":34963
		}
	],
	"buffers":[
		{
			"byteLength":98400,
			"uri":"rocks.bin"
		}
	]
}
