{
	"asset":{
		"generator":"Khronos glTF Blender I/O v3.5.30",
		"version":"2.0"
	},
	"extensionsUsed":[
		"KHR_materials_specular",
		"KHR_materials_emissive_strength",
		"KHR_materials_ior"
	],
	"scene":0,
	"scenes":[
		{
			"name":"Scene",
			"nodes":[
				0,
				1,
				2,
				3,
				4,
				5,
				6
			]
		}
	],
	"nodes":[
		{
			"mesh":0,
			"name":"Feisar_Ship"
		},
		{
			"mesh":1,
			"name":"Ground",
			"translation":[
				0,
				-7.003667831420898,
				0
			]
		},
		{
			"mesh":2,
			"name":"TestCube"
		},
		{
			"mesh":3,
			"name":"Marker",
			"scale":[
				1,
				1,
				0.3064666986465454
			],
			"translation":[
				0,
				1.7207989692687988,
				0
			]
		},
		{
			"mesh":4,
			"name":"Turbine"
		},
		{
			"mesh":5,
			"name":"Blades",
			"translation":[
				0,
				52,
				0
			]
		},
		{
			"mesh":6,
			"name":"BackDrop",
			"rotation":[
				0,
				-1,
				0,
				1.6292068494294654e-07
			],
			"scale":[
				146.36044311523438,
				146.36044311523438,
				146.36044311523438
			],
			"translation":[
				7.493566954508424e-06,
				0,
				85.71641540527344
			]
		}
	],
	"materials":[
		{
			"extensions":{
				"KHR_materials_specular":{
					"specularColorTexture":{
						"index":0
					}
				}
			},
			"name":"orig_default",
			"pbrMetallicRoughness":{
				"baseColorTexture":{
					"index":1
				},
				"metallicFactor":0.8549222946166992,
				"roughnessFactor":0.1590673327445984
			}
		},
		{
			"name":"Material.002",
			"normalTexture":{
				"index":2
			},
			"pbrMetallicRoughness":{
				"baseColorTexture":{
					"index":3
				},
				"metallicFactor":0,
				"roughnessFactor":0.5
			}
		},
		{
			"name":"Material",
			"pbrMetallicRoughness":{
				"baseColorFactor":[
					0.06845368444919586,
					0.372130423784256,
					0.8000000715255737,
					1
				],
				"metallicFactor":0,
				"roughnessFactor":0.5
			}
		},
		{
			"doubleSided":true,
			"emissiveFactor":[
				0.023097341792619446,
				1,
				1
			],
			"extensions":{
				"KHR_materials_emissive_strength":{
					"emissiveStrength":1.0408555365863776
				}
			},
			"name":"Marker",
			"pbrMetallicRoughness":{
				"baseColorFactor":[
					0.09361818432807922,
					0.8000000715255737,
					0.777144193649292,
					0.17098447680473328
				],
				"metallicFactor":0,
				"roughnessFactor":0.5
			}
		},
		{
			"doubleSided":true,
			"name":"Turbine",
			"pbrMetallicRoughness":{
				"baseColorFactor":[
					0.4294518530368805,
					0.4677380621433258,
					0.5488516688346863,
					1
				],
				"metallicFactor":0.2604166567325592,
				"roughnessFactor":0.5
			}
		},
		{
			"doubleSided":true,
			"extensions":{
				"KHR_materials_specular":{
					"specularColorFactor":[
						0.4446295527077621,
						0.4446295527077621,
						0.4446295527077621
					]
				},
				"KHR_materials_ior":{
					"ior":1.4500000476837158
				}
			},
			"name":"Blades",
			"pbrMetallicRoughness":{
				"baseColorFactor":[
					0.6038157939910889,
					0.6038157939910889,
					0.6038157939910889,
					1
				],
				"metallicFactor":0.7083333134651184,
				"roughnessFactor":0.5
			}
		},
		{
			"doubleSided":true,
			"name":"Backdrop",
			"pbrMetallicRoughness":{
				"baseColorFactor":[
					0.8000000715255737,
					0.24539296329021454,
					0.17168207466602325,
					1
				],
				"metallicFactor":0.5260416269302368,
				"roughnessFactor":0.1458333283662796
			}
		}
	],
	"meshes":[
		{
			"name":"Feisar_Ship",
			"primitives":[
				{
					"attributes":{
						"POSITION":0,
						"TEXCOORD_0":1,
						"NORMAL":2
					},
					"indices":3,
					"material":0
				}
			]
		},
		{
			"name":"Cube",
			"primitives":[
				{
					"attributes":{
						"POSITION":4,
						"TEXCOORD_0":5,
						"NORMAL":6
					},
					"indices":7,
					"material":1
				}
			]
		},
		{
			"name":"Cube.001",
			"primitives":[
				{
					"attributes":{
						"POSITION":8,
						"TEXCOORD_0":9,
						"NORMAL":10
					},
					"indices":11,
					"material":2
				}
			]
		},
		{
			"name":"Cube.002",
			"primitives":[
				{
					"attributes":{
						"POSITION":12,
						"TEXCOORD_0":13,
						"NORMAL":14
					},
					"indices":15,
					"material":3
				}
			]
		},
		{
			"name":"Cylinder.001",
			"primitives":[
				{
					"attributes":{
						"POSITION":16,
						"TEXCOORD_0":17,
						"NORMAL":18
					},
					"indices":19,
					"material":4
				}
			]
		},
		{
			"name":"Cylinder.004",
			"primitives":[
				{
					"attributes":{
						"POSITION":20,
						"TEXCOORD_0":21,
						"NORMAL":22
					},
					"indices":23,
					"material":5
				}
			]
		},
		{
			"name":"Plane",
			"primitives":[
				{
					"attributes":{
						"POSITION":24,
						"TEXCOORD_0":25,
						"NORMAL":26
					},
					"indices":27,
					"material":6
				}
			]
		}
	],
	"textures":[
		{
			"sampler":0,
			"source":0
		},
		{
			"sampler":0,
			"source":1
		},
		{
			"sampler":0,
			"source":2
		},
		{
			"sampler":0,
			"source":3
		}
	],
	"images":[
		{
			"mimeType":"image/png",
			"name":"Image",
			"uri":"textures/Image.png"
		},
		{
			"mimeType":"image/png",
			"name":"diffuse",
			"uri":"textures/diffuse.png"
		},
		{
			"mimeType":"image/png",
			"name":"ground-normal",
			"uri":"textures/ground-normal.png"
		},
		{
			"mimeType":"image/png",
			"name":"ground-color",
			"uri":"textures/ground-color.png"
		}
	],
	"accessors":[
		{
			"bufferView":0,
			"componentType":5126,
			"count":3058,
			"max":[
				4.31422758102417,
				2.1638834476470947,
				6.688595294952393
			],
			"min":[
				-4.31422758102417,
				4.444047760898684e-07,
				-6.688595294952393
			],
			"type":"VEC3"
		},
		{
			"bufferView":1,
			"componentType":5126,
			"count":3058,
			"type":"VEC2"
		},
		{
			"bufferView":2,
			"componentType":5126,
			"count":3058,
			"type":"VEC3"
		},
		{
			"bufferView":3,
			"componentType":5123,
			"count":5028,
			"type":"SCALAR"
		},
		{
			"bufferView":4,
			"componentType":5126,
			"count":24,
			"max":[
				256,
				1.000000238418579,
				256
			],
			"min":[
				-256,
				-1.000000238418579,
				-256
			],
			"type":"VEC3"
		},
		{
			"bufferView":5,
			"componentType":5126,
			"count":24,
			"type":"VEC2"
		},
		{
			"bufferView":6,
			"componentType":5126,
			"count":24,
			"type":"VEC3"
		},
		{
			"bufferView":7,
			"componentType":5123,
			"count":36,
			"type":"SCALAR"
		},
		{
			"bufferView":8,
			"componentType":5126,
			"count":24,
			"max":[
				-3.8692057132720947,
				2.982555627822876,
				0.9253063797950745
			],
			"min":[
				-5.719818592071533,
				1.1319429874420166,
				-0.9253063797950745
			],
			"type":"VEC3"
		},
		{
			"bufferView":9,
			"componentType":5126,
			"count":24,
			"type":"VEC2"
		},
		{
			"bufferView":10,
			"componentType":5126,
			"count":24,
			"type":"VEC3"
		},
		{
			"bufferView":11,
			"componentType":5123,
			"count":36,
			"type":"SCALAR"
		},
		{
			"bufferView":12,
			"componentType":5126,
			"count":36,
			"max":[
				1.6669878959655762,
				1,
				1
			],
			"min":[
				-1,
				-1,
				-1
			],
			"type":"VEC3"
		},
		{
			"bufferView":13,
			"componentType":5126,
			"count":36,
			"type":"VEC2"
		},
		{
			"bufferView":14,
			"componentType":5126,
			"count":36,
			"type":"VEC3"
		},
		{
			"bufferView":15,
			"componentType":5123,
			"count":60,
			"type":"SCALAR"
		},
		{
			"bufferView":16,
			"componentType":5126,
			"count":281,
			"max":[
				1.7352467775344849,
				53.21489334106445,
				2.361546039581299
			],
			"min":[
				-1.7352467775344849,
				-6.000397682189941,
				-4.049284934997559
			],
			"type":"VEC3"
		},
		{
			"bufferView":17,
			"componentType":5126,
			"count":281,
			"type":"VEC2"
		},
		{
			"bufferView":18,
			"componentType":5126,
			"count":281,
			"type":"VEC3"
		},
		{
			"bufferView":19,
			"componentType":5123,
			"count":594,
			"type":"SCALAR"
		},
		{
			"bufferView":20,
			"componentType":5126,
			"count":312,
			"max":[
				20.186546325683594,
				23.071388244628906,
				4.22959566116333
			],
			"min":[
				-19.920047760009766,
				-11.865119934082031,
				2.361546516418457
			],
			"type":"VEC3"
		},
		{
			"bufferView":21,
			"componentType":5126,
			"count":312,
			"type":"VEC2"
		},
		{
			"bufferView":22,
			"componentType":5126,
			"count":312,
			"type":"VEC3"
		},
		{
			"bufferView":23,
			"componentType":5123,
			"count":480,
			"type":"SCALAR"
		},
		{
			"bufferView":24,
			"componentType":5126,
			"count":48,
			"max":[
				1,
				1.64516019821167,
				1
			],
			"min":[
				-1,
				0,
				-1
			],
			"type":"VEC3"
		},
		{
			"bufferView":25,
			"componentType":5126,
			"count":48,
			"type":"VEC2"
		},
		{
			"bufferView":26,
			"componentType":5126,
			"count":48,
			"type":"VEC3"
		},
		{
			"bufferView":27,
			"componentType":5123,
			"count":138,
			"type":"SCALAR"
		}
	],
	"bufferViews":[
		{
			"buffer":0,
			"byteLength":36696,
			"byteOffset":0,
			"target":34962
		},
		{
			"buffer":0,
			"byteLength":24464,
			"byteOffset":36696,
			"target":34962
		},
		{
			"buffer":0,
			"byteLength":36696,
			"byteOffset":61160,
			"target":34962
		},
		{
			"buffer":0,
			"byteLength":10056,
			"byteOffset":97856,
			"target":34963
		},
		{
			"buffer":0,
			"byteLength":288,
			"byteOffset":107912,
			"target":34962
		},
		{
			"buffer":0,
			"byteLength":192,
			"byteOffset":108200,
			"target":34962
		},
		{
			"buffer":0,
			"byteLength":288,
			"byteOffset":108392,
			"target":34962
		},
		{
			"buffer":0,
			"byteLength":72,
			"byteOffset":108680,
			"target":34963
		},
		{
			"buffer":0,
			"byteLength":288,
			"byteOffset":108752,
			"target":34962
		},
		{
			"buffer":0,
			"byteLength":192,
			"byteOffset":109040,
			"target":34962
		},
		{
			"buffer":0,
			"byteLength":288,
			"byteOffset":109232,
			"target":34962
		},
		{
			"buffer":0,
			"byteLength":72,
			"byteOffset":109520,
			"target":34963
		},
		{
			"buffer":0,
			"byteLength":432,
			"byteOffset":109592,
			"target":34962
		},
		{
			"buffer":0,
			"byteLength":288,
			"byteOffset":110024,
			"target":34962
		},
		{
			"buffer":0,
			"byteLength":432,
			"byteOffset":110312,
			"target":34962
		},
		{
			"buffer":0,
			"byteLength":120,
			"byteOffset":110744,
			"target":34963
		},
		{
			"buffer":0,
			"byteLength":3372,
			"byteOffset":110864,
			"target":34962
		},
		{
			"buffer":0,
			"byteLength":2248,
			"byteOffset":114236,
			"target":34962
		},
		{
			"buffer":0,
			"byteLength":3372,
			"byteOffset":116484,
			"target":34962
		},
		{
			"buffer":0,
			"byteLength":1188,
			"byteOffset":119856,
			"target":34963
		},
		{
			"buffer":0,
			"byteLength":3744,
			"byteOffset":121044,
			"target":34962
		},
		{
			"buffer":0,
			"byteLength":2496,
			"byteOffset":124788,
			"target":34962
		},
		{
			"buffer":0,
			"byteLength":3744,
			"byteOffset":127284,
			"target":34962
		},
		{
			"buffer":0,
			"byteLength":960,
			"byteOffset":131028,
			"target":34963
		},
		{
			"buffer":0,
			"byteLength":576,
			"byteOffset":131988,
			"target":34962
		},
		{
			"buffer":0,
			"byteLength":384,
			"byteOffset":132564,
			"target":34962
		},
		{
			"buffer":0,
			"byteLength":576,
			"byteOffset":132948,
			"target":34962
		},
		{
			"buffer":0,
			"byteLength":276,
			"byteOffset":133524,
			"target":34963
		}
	],
	"samplers":[
		{
			"magFilter":9729,
			"minFilter":9987
		}
	],
	"buffers":[
		{
			"byteLength":133800,
			"uri":"Feisar.bin"
		}
	]
}
