{
	"asset":{
		"generator":"Khronos glTF Blender I/O v3.5.30",
		"version":"2.0"
	},
	"extensionsUsed":[
		"KHR_materials_specular"
	],
	"scene":0,
	"scenes":[
		{
			"name":"Scene",
			"nodes":[
				0,
				1,
				2,
				3
			]
		}
	],
	"nodes":[
		{
			"mesh":0,
			"name":"Feisar_Ship",
			"rotation":[
				0.7071068286895752,
				0,
				0,
				0.7071068286895752
			],
			"scale":[
				0.19999998807907104,
				0.19999998807907104,
				0.19999998807907104
			]
		},
		{
			"mesh":1,
			"name":"Ground",
			"scale":[
				257.6099853515625,
				1,
				315.095703125
			]
		},
		{
			"mesh":2,
			"name":"TestCube",
			"scale":[
				9.253061294555664,
				9.253061294555664,
				9.253061294555664
			],
			"translation":[
				-47.94511032104492,
				20.57248878479004,
				0
			]
		},
		{
			"mesh":3,
			"name":"Cylinder",
			"scale":[
				6.116662979125977,
				9.8772554397583,
				9.8772554397583
			],
			"translation":[
				156.8451385498047,
				11.021262168884277,
				0
			]
		}
	],
	"materials":[
		{
			"doubleSided":true,
			"extensions":{
				"KHR_materials_specular":{
					"specularColorTexture":{
						"index":0
					}
				}
			},
			"name":"orig_default",
			"pbrMetallicRoughness":{
				"baseColorTexture":{
					"index":1
				},
				"metallicFactor":0.8549222946166992,
				"roughnessFactor":0.1590673327445984
			}
		},
		{
			"doubleSided":true,
			"name":"Material.002",
			"normalTexture":{
				"index":2
			},
			"pbrMetallicRoughness":{
				"baseColorTexture":{
					"index":3
				},
				"metallicFactor":0,
				"roughnessFactor":0.5
			}
		},
		{
			"doubleSided":true,
			"name":"Material",
			"pbrMetallicRoughness":{
				"baseColorFactor":[
					0.06845368444919586,
					0.372130423784256,
					0.8000000715255737,
					1
				],
				"metallicFactor":0,
				"roughnessFactor":0.5
			}
		},
		{
			"doubleSided":true,
			"name":"Material.001",
			"pbrMetallicRoughness":{
				"baseColorFactor":[
					0.025393960997462273,
					0.006246284116059542,
					0.0010338255669921637,
					1
				],
				"metallicFactor":0,
				"roughnessFactor":0.5
			}
		}
	],
	"meshes":[
		{
			"name":"Feisar_Ship",
			"primitives":[
				{
					"attributes":{
						"POSITION":0,
						"TEXCOORD_0":1,
						"NORMAL":2
					},
					"indices":3,
					"material":0
				}
			]
		},
		{
			"name":"Cube",
			"primitives":[
				{
					"attributes":{
						"POSITION":4,
						"TEXCOORD_0":5,
						"NORMAL":6
					},
					"indices":7,
					"material":1
				}
			]
		},
		{
			"name":"Cube.001",
			"primitives":[
				{
					"attributes":{
						"POSITION":8,
						"TEXCOORD_0":9,
						"NORMAL":10
					},
					"indices":11,
					"material":2
				}
			]
		},
		{
			"name":"Cylinder",
			"primitives":[
				{
					"attributes":{
						"POSITION":12,
						"TEXCOORD_0":13,
						"NORMAL":14
					},
					"indices":15,
					"material":3
				}
			]
		}
	],
	"textures":[
		{
			"sampler":0,
			"source":0
		},
		{
			"sampler":0,
			"source":1
		},
		{
			"sampler":0,
			"source":2
		},
		{
			"sampler":0,
			"source":3
		}
	],
	"images":[
		{
			"mimeType":"image/png",
			"name":"Image",
			"uri":"textures/Image.png"
		},
		{
			"mimeType":"image/png",
			"name":"diffuse",
			"uri":"textures/diffuse.png"
		},
		{
			"mimeType":"image/png",
			"name":"ground-normal",
			"uri":"textures/ground-normal.png"
		},
		{
			"mimeType":"image/png",
			"name":"ground-color",
			"uri":"textures/ground-color.png"
		}
	],
	"accessors":[
		{
			"bufferView":0,
			"componentType":5126,
			"count":3060,
			"max":[
				107.85569763183594,
				167.21490478515625,
				0
			],
			"min":[
				-107.85569763183594,
				-167.21490478515625,
				-54.09709930419922
			],
			"type":"VEC3"
		},
		{
			"bufferView":1,
			"componentType":5126,
			"count":3060,
			"type":"VEC2"
		},
		{
			"bufferView":2,
			"componentType":5126,
			"count":3060,
			"type":"VEC3"
		},
		{
			"bufferView":3,
			"componentType":5123,
			"count":5028,
			"type":"SCALAR"
		},
		{
			"bufferView":4,
			"componentType":5126,
			"count":24,
			"max":[
				1,
				1,
				1
			],
			"min":[
				-1,
				-1,
				-1
			],
			"type":"VEC3"
		},
		{
			"bufferView":5,
			"componentType":5126,
			"count":24,
			"type":"VEC2"
		},
		{
			"bufferView":6,
			"componentType":5126,
			"count":24,
			"type":"VEC3"
		},
		{
			"bufferView":7,
			"componentType":5123,
			"count":36,
			"type":"SCALAR"
		},
		{
			"bufferView":8,
			"componentType":5126,
			"count":24,
			"max":[
				1,
				1,
				1
			],
			"min":[
				-1,
				-1,
				-1
			],
			"type":"VEC3"
		},
		{
			"bufferView":9,
			"componentType":5126,
			"count":24,
			"type":"VEC2"
		},
		{
			"bufferView":10,
			"componentType":5126,
			"count":24,
			"type":"VEC3"
		},
		{
			"bufferView":11,
			"componentType":5123,
			"count":36,
			"type":"SCALAR"
		},
		{
			"bufferView":12,
			"componentType":5126,
			"count":218,
			"max":[
				11.774946212768555,
				8.740331649780273,
				11.235520362854004
			],
			"min":[
				-11.774946212768555,
				-1,
				-11.956592559814453
			],
			"type":"VEC3"
		},
		{
			"bufferView":13,
			"componentType":5126,
			"count":218,
			"type":"VEC2"
		},
		{
			"bufferView":14,
			"componentType":5126,
			"count":218,
			"type":"VEC3"
		},
		{
			"bufferView":15,
			"componentType":5123,
			"count":366,
			"type":"SCALAR"
		}
	],
	"bufferViews":[
		{
			"buffer":0,
			"byteLength":36720,
			"byteOffset":0,
			"target":34962
		},
		{
			"buffer":0,
			"byteLength":24480,
			"byteOffset":36720,
			"target":34962
		},
		{
			"buffer":0,
			"byteLength":36720,
			"byteOffset":61200,
			"target":34962
		},
		{
			"buffer":0,
			"byteLength":10056,
			"byteOffset":97920,
			"target":34963
		},
		{
			"buffer":0,
			"byteLength":288,
			"byteOffset":107976,
			"target":34962
		},
		{
			"buffer":0,
			"byteLength":192,
			"byteOffset":108264,
			"target":34962
		},
		{
			"buffer":0,
			"byteLength":288,
			"byteOffset":108456,
			"target":34962
		},
		{
			"buffer":0,
			"byteLength":72,
			"byteOffset":108744,
			"target":34963
		},
		{
			"buffer":0,
			"byteLength":288,
			"byteOffset":108816,
			"target":34962
		},
		{
			"buffer":0,
			"byteLength":192,
			"byteOffset":109104,
			"target":34962
		},
		{
			"buffer":0,
			"byteLength":288,
			"byteOffset":109296,
			"target":34962
		},
		{
			"buffer":0,
			"byteLength":72,
			"byteOffset":109584,
			"target":34963
		},
		{
			"buffer":0,
			"byteLength":2616,
			"byteOffset":109656,
			"target":34962
		},
		{
			"buffer":0,
			"byteLength":1744,
			"byteOffset":112272,
			"target":34962
		},
		{
			"buffer":0,
			"byteLength":2616,
			"byteOffset":114016,
			"target":34962
		},
		{
			"buffer":0,
			"byteLength":732,
			"byteOffset":116632,
			"target":34963
		}
	],
	"samplers":[
		{
			"magFilter":9729,
			"minFilter":9987
		}
	],
	"buffers":[
		{
			"byteLength":117364,
			"uri":"Feisar.bin"
		}
	]
}
