{
	"asset":{
		"generator":"Khronos glTF Blender I/O v3.5.30",
		"version":"2.0"
	},
	"extensionsUsed":[
		"KHR_materials_specular"
	],
	"scene":0,
	"scenes":[
		{
			"name":"Scene",
			"nodes":[
				0,
				1,
				2,
				3,
				4,
				5
			]
		}
	],
	"nodes":[
		{
			"mesh":0,
			"name":"Feisar_Ship"
		},
		{
			"mesh":1,
			"name":"TestCube"
		},
		{
			"mesh":2,
			"name":"Rock",
			"rotation":[
				-0.004062348045408726,
				-0.06106100603938103,
				0.07265642285346985,
				0.9954779148101807
			],
			"scale":[
				2.189115524291992,
				2.189115524291992,
				5.4997172355651855
			],
			"translation":[
				0,
				-13.796737670898438,
				91.00033569335938
			]
		},
		{
			"mesh":2,
			"name":"Rock.001",
			"rotation":[
				0.006589426659047604,
				0.09904537349939346,
				-0.11785398423671722,
				0.9880572557449341
			],
			"scale":[
				2.189115524291992,
				2.189115524291992,
				5.4997172355651855
			],
			"translation":[
				-55.580039978027344,
				-7.966670989990234,
				175.38694763183594
			]
		},
		{
			"mesh":2,
			"name":"Rock.002",
			"rotation":[
				0.006589426659047604,
				0.09904537349939346,
				-0.11785398423671722,
				0.9880572557449341
			],
			"scale":[
				2.189115524291992,
				2.189115524291992,
				5.4997172355651855
			],
			"translation":[
				26.87586212158203,
				-6.983822822570801,
				244.273193359375
			]
		},
		{
			"mesh":2,
			"name":"Rock.003",
			"rotation":[
				-0.017906222492456436,
				0.31107741594314575,
				-0.12141785770654678,
				0.9424266219139099
			],
			"scale":[
				2.189115524291992,
				2.189115524291992,
				5.4997172355651855
			],
			"translation":[
				-7.086847305297852,
				-5.925141334533691,
				320.1725158691406
			]
		}
	],
	"materials":[
		{
			"extensions":{
				"KHR_materials_specular":{
					"specularColorTexture":{
						"index":0
					}
				}
			},
			"name":"orig_default",
			"pbrMetallicRoughness":{
				"baseColorTexture":{
					"index":1
				},
				"metallicFactor":0.8549222946166992,
				"roughnessFactor":0.1590673327445984
			}
		},
		{
			"name":"Material",
			"pbrMetallicRoughness":{
				"baseColorFactor":[
					0.06845368444919586,
					0.372130423784256,
					0.8000000715255737,
					1
				],
				"metallicFactor":0,
				"roughnessFactor":0.5
			}
		},
		{
			"name":"Material.001",
			"pbrMetallicRoughness":{
				"baseColorFactor":[
					0.025393960997462273,
					0.006246284116059542,
					0.0010338255669921637,
					1
				],
				"metallicFactor":0,
				"roughnessFactor":0.5
			}
		}
	],
	"meshes":[
		{
			"name":"Feisar_Ship",
			"primitives":[
				{
					"attributes":{
						"POSITION":0,
						"TEXCOORD_0":1,
						"NORMAL":2
					},
					"indices":3,
					"material":0
				}
			]
		},
		{
			"name":"Cube.001",
			"primitives":[
				{
					"attributes":{
						"POSITION":4,
						"TEXCOORD_0":5,
						"NORMAL":6
					},
					"indices":7,
					"material":1
				}
			]
		},
		{
			"name":"Cylinder",
			"primitives":[
				{
					"attributes":{
						"POSITION":8,
						"TEXCOORD_0":9,
						"NORMAL":10
					},
					"indices":11,
					"material":2
				}
			]
		}
	],
	"textures":[
		{
			"sampler":0,
			"source":0
		},
		{
			"sampler":0,
			"source":1
		}
	],
	"images":[
		{
			"mimeType":"image/png",
			"name":"Image",
			"uri":"textures/Image.png"
		},
		{
			"mimeType":"image/png",
			"name":"diffuse",
			"uri":"textures/diffuse.png"
		}
	],
	"accessors":[
		{
			"bufferView":0,
			"componentType":5126,
			"count":3058,
			"max":[
				4.31422758102417,
				2.1638834476470947,
				6.688595294952393
			],
			"min":[
				-4.31422758102417,
				4.444047760898684e-07,
				-6.688595294952393
			],
			"type":"VEC3"
		},
		{
			"bufferView":1,
			"componentType":5126,
			"count":3058,
			"type":"VEC2"
		},
		{
			"bufferView":2,
			"componentType":5126,
			"count":3058,
			"type":"VEC3"
		},
		{
			"bufferView":3,
			"componentType":5123,
			"count":5028,
			"type":"SCALAR"
		},
		{
			"bufferView":4,
			"componentType":5126,
			"count":24,
			"max":[
				-3.8692057132720947,
				2.982555627822876,
				0.9253063797950745
			],
			"min":[
				-5.719818592071533,
				1.1319429874420166,
				-0.9253063797950745
			],
			"type":"VEC3"
		},
		{
			"bufferView":5,
			"componentType":5126,
			"count":24,
			"type":"VEC2"
		},
		{
			"bufferView":6,
			"componentType":5126,
			"count":24,
			"type":"VEC3"
		},
		{
			"bufferView":7,
			"componentType":5123,
			"count":36,
			"type":"SCALAR"
		},
		{
			"bufferView":8,
			"componentType":5126,
			"count":274,
			"max":[
				22.886856079101562,
				9.735177993774414,
				11.097613334655762
			],
			"min":[
				8.482178688049316,
				-6.429404258728027,
				-11.809834480285645
			],
			"type":"VEC3"
		},
		{
			"bufferView":9,
			"componentType":5126,
			"count":274,
			"type":"VEC2"
		},
		{
			"bufferView":10,
			"componentType":5126,
			"count":274,
			"type":"VEC3"
		},
		{
			"bufferView":11,
			"componentType":5123,
			"count":474,
			"type":"SCALAR"
		}
	],
	"bufferViews":[
		{
			"buffer":0,
			"byteLength":36696,
			"byteOffset":0,
			"target":34962
		},
		{
			"buffer":0,
			"byteLength":24464,
			"byteOffset":36696,
			"target":34962
		},
		{
			"buffer":0,
			"byteLength":36696,
			"byteOffset":61160,
			"target":34962
		},
		{
			"buffer":0,
			"byteLength":10056,
			"byteOffset":97856,
			"target":34963
		},
		{
			"buffer":0,
			"byteLength":288,
			"byteOffset":107912,
			"target":34962
		},
		{
			"buffer":0,
			"byteLength":192,
			"byteOffset":108200,
			"target":34962
		},
		{
			"buffer":0,
			"byteLength":288,
			"byteOffset":108392,
			"target":34962
		},
		{
			"buffer":0,
			"byteLength":72,
			"byteOffset":108680,
			"target":34963
		},
		{
			"buffer":0,
			"byteLength":3288,
			"byteOffset":108752,
			"target":34962
		},
		{
			"buffer":0,
			"byteLength":2192,
			"byteOffset":112040,
			"target":34962
		},
		{
			"buffer":0,
			"byteLength":3288,
			"byteOffset":114232,
			"target":34962
		},
		{
			"buffer":0,
			"byteLength":948,
			"byteOffset":117520,
			"target":34963
		}
	],
	"samplers":[
		{
			"magFilter":9729,
			"minFilter":9987
		}
	],
	"buffers":[
		{
			"byteLength":118468,
			"uri":"Feisar.bin"
		}
	]
}
