{
	"asset":{
		"generator":"Khronos glTF Blender I/O v3.5.30",
		"version":"2.0"
	},
	"extensionsUsed":[
		"KHR_materials_specular"
	],
	"scene":0,
	"scenes":[
		{
			"name":"Scene",
			"nodes":[
				0,
				1,
				2,
				3
			]
		}
	],
	"nodes":[
		{
			"mesh":0,
			"name":"Feisar_Ship"
		},
		{
			"mesh":1,
			"name":"Ground"
		},
		{
			"mesh":2,
			"name":"TestCube"
		},
		{
			"mesh":3,
			"name":"Rock"
		}
	],
	"materials":[
		{
			"doubleSided":true,
			"extensions":{
				"KHR_materials_specular":{
					"specularColorTexture":{
						"index":0
					}
				}
			},
			"name":"orig_default",
			"pbrMetallicRoughness":{
				"baseColorTexture":{
					"index":1
				},
				"metallicFactor":0.8549222946166992,
				"roughnessFactor":0.1590673327445984
			}
		},
		{
			"doubleSided":true,
			"name":"Material.002",
			"normalTexture":{
				"index":2
			},
			"pbrMetallicRoughness":{
				"baseColorTexture":{
					"index":3
				},
				"metallicFactor":0,
				"roughnessFactor":0.5
			}
		},
		{
			"doubleSided":true,
			"name":"Material",
			"pbrMetallicRoughness":{
				"baseColorFactor":[
					0.06845368444919586,
					0.372130423784256,
					0.8000000715255737,
					1
				],
				"metallicFactor":0,
				"roughnessFactor":0.5
			}
		},
		{
			"doubleSided":true,
			"name":"Material.001",
			"pbrMetallicRoughness":{
				"baseColorFactor":[
					0.025393960997462273,
					0.006246284116059542,
					0.0010338255669921637,
					1
				],
				"metallicFactor":0,
				"roughnessFactor":0.5
			}
		}
	],
	"meshes":[
		{
			"name":"Feisar_Ship",
			"primitives":[
				{
					"attributes":{
						"POSITION":0,
						"TEXCOORD_0":1,
						"NORMAL":2
					},
					"indices":3,
					"material":0
				}
			]
		},
		{
			"name":"Cube",
			"primitives":[
				{
					"attributes":{
						"POSITION":4,
						"TEXCOORD_0":5,
						"NORMAL":6
					},
					"indices":7,
					"material":1
				}
			]
		},
		{
			"name":"Cube.001",
			"primitives":[
				{
					"attributes":{
						"POSITION":8,
						"TEXCOORD_0":9,
						"NORMAL":10
					},
					"indices":11,
					"material":2
				}
			]
		},
		{
			"name":"Cylinder",
			"primitives":[
				{
					"attributes":{
						"POSITION":12,
						"TEXCOORD_0":13,
						"NORMAL":14
					},
					"indices":15,
					"material":3
				}
			]
		}
	],
	"textures":[
		{
			"sampler":0,
			"source":0
		},
		{
			"sampler":0,
			"source":1
		},
		{
			"sampler":0,
			"source":2
		},
		{
			"sampler":0,
			"source":3
		}
	],
	"images":[
		{
			"mimeType":"image/png",
			"name":"Image",
			"uri":"textures/Image.png"
		},
		{
			"mimeType":"image/png",
			"name":"diffuse",
			"uri":"textures/diffuse.png"
		},
		{
			"mimeType":"image/png",
			"name":"ground-normal",
			"uri":"textures/ground-normal.png"
		},
		{
			"mimeType":"image/png",
			"name":"ground-color",
			"uri":"textures/ground-color.png"
		}
	],
	"accessors":[
		{
			"bufferView":0,
			"componentType":5126,
			"count":3058,
			"max":[
				21.571138381958008,
				10.819417953491211,
				33.44297790527344
			],
			"min":[
				-21.571138381958008,
				2.222024022557889e-06,
				-33.44297790527344
			],
			"type":"VEC3"
		},
		{
			"bufferView":1,
			"componentType":5126,
			"count":3058,
			"type":"VEC2"
		},
		{
			"bufferView":2,
			"componentType":5126,
			"count":3058,
			"type":"VEC3"
		},
		{
			"bufferView":3,
			"componentType":5123,
			"count":5028,
			"type":"SCALAR"
		},
		{
			"bufferView":4,
			"componentType":5126,
			"count":24,
			"max":[
				256,
				1.000000238418579,
				256
			],
			"min":[
				-256,
				-1.000000238418579,
				-256
			],
			"type":"VEC3"
		},
		{
			"bufferView":5,
			"componentType":5126,
			"count":24,
			"type":"VEC2"
		},
		{
			"bufferView":6,
			"componentType":5126,
			"count":24,
			"type":"VEC3"
		},
		{
			"bufferView":7,
			"componentType":5123,
			"count":36,
			"type":"SCALAR"
		},
		{
			"bufferView":8,
			"componentType":5126,
			"count":24,
			"max":[
				-38.692047119140625,
				29.825550079345703,
				9.253061294555664
			],
			"min":[
				-57.19817352294922,
				11.319427490234375,
				-9.253061294555664
			],
			"type":"VEC3"
		},
		{
			"bufferView":9,
			"componentType":5126,
			"count":24,
			"type":"VEC2"
		},
		{
			"bufferView":10,
			"componentType":5126,
			"count":24,
			"type":"VEC3"
		},
		{
			"bufferView":11,
			"componentType":5123,
			"count":36,
			"type":"SCALAR"
		},
		{
			"bufferView":12,
			"componentType":5126,
			"count":218,
			"max":[
				228.86851501464844,
				97.35175323486328,
				110.97610473632812
			],
			"min":[
				84.82176208496094,
				1.1440067291259766,
				-118.09832000732422
			],
			"type":"VEC3"
		},
		{
			"bufferView":13,
			"componentType":5126,
			"count":218,
			"type":"VEC2"
		},
		{
			"bufferView":14,
			"componentType":5126,
			"count":218,
			"type":"VEC3"
		},
		{
			"bufferView":15,
			"componentType":5123,
			"count":366,
			"type":"SCALAR"
		}
	],
	"bufferViews":[
		{
			"buffer":0,
			"byteLength":36696,
			"byteOffset":0,
			"target":34962
		},
		{
			"buffer":0,
			"byteLength":24464,
			"byteOffset":36696,
			"target":34962
		},
		{
			"buffer":0,
			"byteLength":36696,
			"byteOffset":61160,
			"target":34962
		},
		{
			"buffer":0,
			"byteLength":10056,
			"byteOffset":97856,
			"target":34963
		},
		{
			"buffer":0,
			"byteLength":288,
			"byteOffset":107912,
			"target":34962
		},
		{
			"buffer":0,
			"byteLength":192,
			"byteOffset":108200,
			"target":34962
		},
		{
			"buffer":0,
			"byteLength":288,
			"byteOffset":108392,
			"target":34962
		},
		{
			"buffer":0,
			"byteLength":72,
			"byteOffset":108680,
			"target":34963
		},
		{
			"buffer":0,
			"byteLength":288,
			"byteOffset":108752,
			"target":34962
		},
		{
			"buffer":0,
			"byteLength":192,
			"byteOffset":109040,
			"target":34962
		},
		{
			"buffer":0,
			"byteLength":288,
			"byteOffset":109232,
			"target":34962
		},
		{
			"buffer":0,
			"byteLength":72,
			"byteOffset":109520,
			"target":34963
		},
		{
			"buffer":0,
			"byteLength":2616,
			"byteOffset":109592,
			"target":34962
		},
		{
			"buffer":0,
			"byteLength":1744,
			"byteOffset":112208,
			"target":34962
		},
		{
			"buffer":0,
			"byteLength":2616,
			"byteOffset":113952,
			"target":34962
		},
		{
			"buffer":0,
			"byteLength":732,
			"byteOffset":116568,
			"target":34963
		}
	],
	"samplers":[
		{
			"magFilter":9729,
			"minFilter":9987
		}
	],
	"buffers":[
		{
			"byteLength":117300,
			"uri":"Feisar.bin"
		}
	]
}
