{
	"asset":{
		"generator":"Khronos glTF Blender I/O v3.5.30",
		"version":"2.0"
	},
	"extensionsUsed":[
		"KHR_materials_specular",
		"KHR_materials_emissive_strength",
		"KHR_materials_ior"
	],
	"scene":0,
	"scenes":[
		{
			"name":"Scene",
			"nodes":[
				0,
				1,
				2,
				3,
				4,
				5,
				6,
				7
			]
		}
	],
	"nodes":[
		{
			"mesh":0,
			"name":"Feisar_Ship"
		},
		{
			"mesh":1,
			"name":"TestCube"
		},
		{
			"mesh":2,
			"name":"Marker"
		},
		{
			"mesh":3,
			"name":"Turbine"
		},
		{
			"mesh":4,
			"name":"Blades",
			"translation":[
				0,
				104,
				0
			]
		},
		{
			"mesh":5,
			"name":"BackDrop"
		},
		{
			"mesh":6,
			"name":"CheckPoint"
		},
		{
			"mesh":7,
			"name":"Arrow"
		}
	],
	"animations":[
		{
			"channels":[
				{
					"sampler":0,
					"target":{
						"node":0,
						"path":"translation"
					}
				},
				{
					"sampler":1,
					"target":{
						"node":0,
						"path":"rotation"
					}
				},
				{
					"sampler":2,
					"target":{
						"node":0,
						"path":"scale"
					}
				}
			],
			"name":"Feisar_Ship",
			"samplers":[
				{
					"input":32,
					"interpolation":"LINEAR",
					"output":33
				},
				{
					"input":32,
					"interpolation":"LINEAR",
					"output":34
				},
				{
					"input":32,
					"interpolation":"LINEAR",
					"output":35
				}
			]
		},
		{
			"channels":[
				{
					"sampler":0,
					"target":{
						"node":1,
						"path":"translation"
					}
				},
				{
					"sampler":1,
					"target":{
						"node":1,
						"path":"rotation"
					}
				},
				{
					"sampler":2,
					"target":{
						"node":1,
						"path":"scale"
					}
				}
			],
			"name":"TestCube",
			"samplers":[
				{
					"input":32,
					"interpolation":"LINEAR",
					"output":36
				},
				{
					"input":32,
					"interpolation":"LINEAR",
					"output":37
				},
				{
					"input":32,
					"interpolation":"LINEAR",
					"output":38
				}
			]
		},
		{
			"channels":[
				{
					"sampler":0,
					"target":{
						"node":2,
						"path":"translation"
					}
				},
				{
					"sampler":1,
					"target":{
						"node":2,
						"path":"rotation"
					}
				},
				{
					"sampler":2,
					"target":{
						"node":2,
						"path":"scale"
					}
				}
			],
			"name":"Marker",
			"samplers":[
				{
					"input":32,
					"interpolation":"LINEAR",
					"output":39
				},
				{
					"input":32,
					"interpolation":"LINEAR",
					"output":40
				},
				{
					"input":32,
					"interpolation":"LINEAR",
					"output":41
				}
			]
		},
		{
			"channels":[
				{
					"sampler":0,
					"target":{
						"node":3,
						"path":"translation"
					}
				},
				{
					"sampler":1,
					"target":{
						"node":3,
						"path":"rotation"
					}
				},
				{
					"sampler":2,
					"target":{
						"node":3,
						"path":"scale"
					}
				}
			],
			"name":"Turbine",
			"samplers":[
				{
					"input":32,
					"interpolation":"LINEAR",
					"output":42
				},
				{
					"input":32,
					"interpolation":"LINEAR",
					"output":43
				},
				{
					"input":32,
					"interpolation":"LINEAR",
					"output":44
				}
			]
		},
		{
			"channels":[
				{
					"sampler":0,
					"target":{
						"node":4,
						"path":"translation"
					}
				},
				{
					"sampler":1,
					"target":{
						"node":4,
						"path":"rotation"
					}
				},
				{
					"sampler":2,
					"target":{
						"node":4,
						"path":"scale"
					}
				}
			],
			"name":"Blades",
			"samplers":[
				{
					"input":32,
					"interpolation":"LINEAR",
					"output":45
				},
				{
					"input":32,
					"interpolation":"LINEAR",
					"output":46
				},
				{
					"input":32,
					"interpolation":"LINEAR",
					"output":47
				}
			]
		},
		{
			"channels":[
				{
					"sampler":0,
					"target":{
						"node":5,
						"path":"translation"
					}
				},
				{
					"sampler":1,
					"target":{
						"node":5,
						"path":"rotation"
					}
				},
				{
					"sampler":2,
					"target":{
						"node":5,
						"path":"scale"
					}
				}
			],
			"name":"BackDrop",
			"samplers":[
				{
					"input":32,
					"interpolation":"LINEAR",
					"output":48
				},
				{
					"input":32,
					"interpolation":"LINEAR",
					"output":49
				},
				{
					"input":32,
					"interpolation":"LINEAR",
					"output":50
				}
			]
		},
		{
			"channels":[
				{
					"sampler":0,
					"target":{
						"node":6,
						"path":"translation"
					}
				},
				{
					"sampler":1,
					"target":{
						"node":6,
						"path":"rotation"
					}
				},
				{
					"sampler":2,
					"target":{
						"node":6,
						"path":"scale"
					}
				}
			],
			"name":"CheckPoint",
			"samplers":[
				{
					"input":32,
					"interpolation":"LINEAR",
					"output":51
				},
				{
					"input":32,
					"interpolation":"LINEAR",
					"output":52
				},
				{
					"input":32,
					"interpolation":"LINEAR",
					"output":53
				}
			]
		},
		{
			"channels":[
				{
					"sampler":0,
					"target":{
						"node":7,
						"path":"translation"
					}
				},
				{
					"sampler":1,
					"target":{
						"node":7,
						"path":"rotation"
					}
				},
				{
					"sampler":2,
					"target":{
						"node":7,
						"path":"scale"
					}
				}
			],
			"name":"Arrow",
			"samplers":[
				{
					"input":32,
					"interpolation":"LINEAR",
					"output":54
				},
				{
					"input":32,
					"interpolation":"LINEAR",
					"output":55
				},
				{
					"input":32,
					"interpolation":"LINEAR",
					"output":56
				}
			]
		}
	],
	"materials":[
		{
			"extensions":{
				"KHR_materials_specular":{
					"specularColorTexture":{
						"index":0
					}
				}
			},
			"name":"orig_default",
			"pbrMetallicRoughness":{
				"baseColorTexture":{
					"index":1
				},
				"metallicFactor":0.8549222946166992,
				"roughnessFactor":0.1590673327445984
			}
		},
		{
			"name":"Material",
			"pbrMetallicRoughness":{
				"baseColorFactor":[
					0.06845368444919586,
					0.372130423784256,
					0.8000000715255737,
					1
				],
				"metallicFactor":0,
				"roughnessFactor":0.5
			}
		},
		{
			"doubleSided":true,
			"emissiveFactor":[
				0.023097341792619446,
				1,
				1
			],
			"extensions":{
				"KHR_materials_emissive_strength":{
					"emissiveStrength":1.0408555365863776
				}
			},
			"name":"Marker",
			"pbrMetallicRoughness":{
				"baseColorFactor":[
					0.09361818432807922,
					0.8000000715255737,
					0.777144193649292,
					0.17098447680473328
				],
				"metallicFactor":0,
				"roughnessFactor":0.5
			}
		},
		{
			"doubleSided":true,
			"name":"Turbine",
			"pbrMetallicRoughness":{
				"baseColorFactor":[
					0.4294518530368805,
					0.4677380621433258,
					0.5488516688346863,
					1
				],
				"metallicFactor":0.2604166567325592,
				"roughnessFactor":0.5
			}
		},
		{
			"doubleSided":true,
			"extensions":{
				"KHR_materials_specular":{
					"specularColorFactor":[
						0.4446295527077621,
						0.4446295527077621,
						0.4446295527077621
					]
				},
				"KHR_materials_ior":{
					"ior":1.4500000476837158
				}
			},
			"name":"Blades",
			"pbrMetallicRoughness":{
				"baseColorFactor":[
					0.6038157939910889,
					0.6038157939910889,
					0.6038157939910889,
					1
				],
				"metallicFactor":0.7083333134651184,
				"roughnessFactor":0.5
			}
		},
		{
			"doubleSided":true,
			"name":"Backdrop",
			"pbrMetallicRoughness":{
				"baseColorFactor":[
					0.8000000715255737,
					0.24539296329021454,
					0.17168207466602325,
					1
				],
				"metallicFactor":0.5260416269302368
			}
		},
		{
			"extensions":{
				"KHR_materials_specular":{
					"specularColorFactor":[
						0,
						0,
						0
					]
				},
				"KHR_materials_ior":{
					"ior":1.4500000476837158
				}
			},
			"name":"Iron",
			"pbrMetallicRoughness":{
				"baseColorTexture":{
					"index":2
				},
				"metallicFactor":0.8968254327774048,
				"roughnessFactor":0.341269850730896
			}
		},
		{
			"doubleSided":true,
			"emissiveFactor":[
				1,
				0.021753782406449318,
				0.8648083209991455
			],
			"extensions":{
				"KHR_materials_emissive_strength":{
					"emissiveStrength":20
				},
				"KHR_materials_specular":{
					"specularColorFactor":[
						1.7502877293867631,
						1.7502877293867631,
						1.7502877293867631
					]
				},
				"KHR_materials_ior":{
					"ior":1.4500000476837158
				}
			},
			"name":"CheckPoint",
			"pbrMetallicRoughness":{
				"baseColorFactor":[
					0.8000000715255737,
					0.00010608218872221187,
					0.6816087961196899,
					0.2539682388305664
				],
				"roughnessFactor":0.5
			}
		}
	],
	"meshes":[
		{
			"name":"Feisar_Ship",
			"primitives":[
				{
					"attributes":{
						"POSITION":0,
						"TEXCOORD_0":1,
						"NORMAL":2
					},
					"indices":3,
					"material":0
				}
			]
		},
		{
			"name":"Cube.001",
			"primitives":[
				{
					"attributes":{
						"POSITION":4,
						"TEXCOORD_0":5,
						"NORMAL":6
					},
					"indices":7,
					"material":1
				}
			]
		},
		{
			"name":"Cube.002",
			"primitives":[
				{
					"attributes":{
						"POSITION":8,
						"TEXCOORD_0":9,
						"NORMAL":10
					},
					"indices":11,
					"material":2
				}
			]
		},
		{
			"name":"Cylinder.001",
			"primitives":[
				{
					"attributes":{
						"POSITION":12,
						"TEXCOORD_0":13,
						"NORMAL":14
					},
					"indices":15,
					"material":3
				}
			]
		},
		{
			"name":"Cylinder.004",
			"primitives":[
				{
					"attributes":{
						"POSITION":16,
						"TEXCOORD_0":17,
						"NORMAL":18
					},
					"indices":19,
					"material":4
				}
			]
		},
		{
			"name":"Plane",
			"primitives":[
				{
					"attributes":{
						"POSITION":20,
						"TEXCOORD_0":21,
						"NORMAL":22
					},
					"indices":23,
					"material":5
				}
			]
		},
		{
			"name":"Cube.003",
			"primitives":[
				{
					"attributes":{
						"POSITION":24,
						"TEXCOORD_0":25,
						"NORMAL":26
					},
					"indices":27,
					"material":6
				}
			]
		},
		{
			"name":"Cube.004",
			"primitives":[
				{
					"attributes":{
						"POSITION":28,
						"TEXCOORD_0":29,
						"NORMAL":30
					},
					"indices":31,
					"material":7
				}
			]
		}
	],
	"textures":[
		{
			"sampler":0,
			"source":0
		},
		{
			"sampler":0,
			"source":1
		},
		{
			"sampler":0,
			"source":2
		}
	],
	"images":[
		{
			"mimeType":"image/png",
			"name":"Image",
			"uri":"textures/Image.png"
		},
		{
			"mimeType":"image/png",
			"name":"diffuse",
			"uri":"textures/diffuse.png"
		},
		{
			"mimeType":"image/jpeg",
			"name":"rust",
			"uri":"textures/rust.jpg"
		}
	],
	"accessors":[
		{
			"bufferView":0,
			"componentType":5126,
			"count":3058,
			"max":[
				4.31422758102417,
				2.1638834476470947,
				6.688595294952393
			],
			"min":[
				-4.31422758102417,
				4.444047760898684e-07,
				-6.688595294952393
			],
			"type":"VEC3"
		},
		{
			"bufferView":1,
			"componentType":5126,
			"count":3058,
			"type":"VEC2"
		},
		{
			"bufferView":2,
			"componentType":5126,
			"count":3058,
			"type":"VEC3"
		},
		{
			"bufferView":3,
			"componentType":5123,
			"count":5028,
			"type":"SCALAR"
		},
		{
			"bufferView":4,
			"componentType":5126,
			"count":24,
			"max":[
				-3.8692057132720947,
				2.982555627822876,
				0.9253063797950745
			],
			"min":[
				-5.719818592071533,
				1.1319429874420166,
				-0.9253063797950745
			],
			"type":"VEC3"
		},
		{
			"bufferView":5,
			"componentType":5126,
			"count":24,
			"type":"VEC2"
		},
		{
			"bufferView":6,
			"componentType":5126,
			"count":24,
			"type":"VEC3"
		},
		{
			"bufferView":7,
			"componentType":5123,
			"count":36,
			"type":"SCALAR"
		},
		{
			"bufferView":8,
			"componentType":5126,
			"count":36,
			"max":[
				1.6669878959655762,
				2.720798969268799,
				0.3064666986465454
			],
			"min":[
				-1,
				0.7207989692687988,
				-0.3064666986465454
			],
			"type":"VEC3"
		},
		{
			"bufferView":9,
			"componentType":5126,
			"count":36,
			"type":"VEC2"
		},
		{
			"bufferView":10,
			"componentType":5126,
			"count":36,
			"type":"VEC3"
		},
		{
			"bufferView":11,
			"componentType":5123,
			"count":60,
			"type":"SCALAR"
		},
		{
			"bufferView":12,
			"componentType":5126,
			"count":281,
			"max":[
				3.4704935550689697,
				106.4297866821289,
				4.723092079162598
			],
			"min":[
				-3.4704935550689697,
				-12.000795364379883,
				-8.098569869995117
			],
			"type":"VEC3"
		},
		{
			"bufferView":13,
			"componentType":5126,
			"count":281,
			"type":"VEC2"
		},
		{
			"bufferView":14,
			"componentType":5126,
			"count":281,
			"type":"VEC3"
		},
		{
			"bufferView":15,
			"componentType":5123,
			"count":594,
			"type":"SCALAR"
		},
		{
			"bufferView":16,
			"componentType":5126,
			"count":312,
			"max":[
				40.37309265136719,
				46.14277648925781,
				8.45919132232666
			],
			"min":[
				-39.84009552001953,
				-23.730239868164062,
				4.723093032836914
			],
			"type":"VEC3"
		},
		{
			"bufferView":17,
			"componentType":5126,
			"count":312,
			"type":"VEC2"
		},
		{
			"bufferView":18,
			"componentType":5126,
			"count":312,
			"type":"VEC3"
		},
		{
			"bufferView":19,
			"componentType":5123,
			"count":480,
			"type":"SCALAR"
		},
		{
			"bufferView":20,
			"componentType":5126,
			"count":48,
			"max":[
				349.09130859375,
				240.786376953125,
				232.07696533203125
			],
			"min":[
				-349.09124755859375,
				0,
				-60.644134521484375
			],
			"type":"VEC3"
		},
		{
			"bufferView":21,
			"componentType":5126,
			"count":48,
			"type":"VEC2"
		},
		{
			"bufferView":22,
			"componentType":5126,
			"count":48,
			"type":"VEC3"
		},
		{
			"bufferView":23,
			"componentType":5123,
			"count":138,
			"type":"SCALAR"
		},
		{
			"bufferView":24,
			"componentType":5126,
			"count":264,
			"max":[
				34.00240707397461,
				38.114601135253906,
				10.54526424407959
			],
			"min":[
				-32.79865264892578,
				-6.466556549072266,
				-10.54526424407959
			],
			"type":"VEC3"
		},
		{
			"bufferView":25,
			"componentType":5126,
			"count":264,
			"type":"VEC2"
		},
		{
			"bufferView":26,
			"componentType":5126,
			"count":264,
			"type":"VEC3"
		},
		{
			"bufferView":27,
			"componentType":5123,
			"count":480,
			"type":"SCALAR"
		},
		{
			"bufferView":28,
			"componentType":5126,
			"count":48,
			"max":[
				2.784868001937866,
				0.3735206127166748,
				7.099983215332031
			],
			"min":[
				-2.784868001937866,
				-0.3735206127166748,
				-3.2728185653686523
			],
			"type":"VEC3"
		},
		{
			"bufferView":29,
			"componentType":5126,
			"count":48,
			"type":"VEC2"
		},
		{
			"bufferView":30,
			"componentType":5126,
			"count":48,
			"type":"VEC3"
		},
		{
			"bufferView":31,
			"componentType":5123,
			"count":72,
			"type":"SCALAR"
		},
		{
			"bufferView":32,
			"componentType":5126,
			"count":2,
			"max":[
				0.08333333333333333
			],
			"min":[
				0.041666666666666664
			],
			"type":"SCALAR"
		},
		{
			"bufferView":33,
			"componentType":5126,
			"count":2,
			"type":"VEC3"
		},
		{
			"bufferView":34,
			"componentType":5126,
			"count":2,
			"type":"VEC4"
		},
		{
			"bufferView":35,
			"componentType":5126,
			"count":2,
			"type":"VEC3"
		},
		{
			"bufferView":36,
			"componentType":5126,
			"count":2,
			"type":"VEC3"
		},
		{
			"bufferView":37,
			"componentType":5126,
			"count":2,
			"type":"VEC4"
		},
		{
			"bufferView":38,
			"componentType":5126,
			"count":2,
			"type":"VEC3"
		},
		{
			"bufferView":39,
			"componentType":5126,
			"count":2,
			"type":"VEC3"
		},
		{
			"bufferView":40,
			"componentType":5126,
			"count":2,
			"type":"VEC4"
		},
		{
			"bufferView":41,
			"componentType":5126,
			"count":2,
			"type":"VEC3"
		},
		{
			"bufferView":42,
			"componentType":5126,
			"count":2,
			"type":"VEC3"
		},
		{
			"bufferView":43,
			"componentType":5126,
			"count":2,
			"type":"VEC4"
		},
		{
			"bufferView":44,
			"componentType":5126,
			"count":2,
			"type":"VEC3"
		},
		{
			"bufferView":45,
			"componentType":5126,
			"count":2,
			"type":"VEC3"
		},
		{
			"bufferView":46,
			"componentType":5126,
			"count":2,
			"type":"VEC4"
		},
		{
			"bufferView":47,
			"componentType":5126,
			"count":2,
			"type":"VEC3"
		},
		{
			"bufferView":48,
			"componentType":5126,
			"count":2,
			"type":"VEC3"
		},
		{
			"bufferView":49,
			"componentType":5126,
			"count":2,
			"type":"VEC4"
		},
		{
			"bufferView":50,
			"componentType":5126,
			"count":2,
			"type":"VEC3"
		},
		{
			"bufferView":51,
			"componentType":5126,
			"count":2,
			"type":"VEC3"
		},
		{
			"bufferView":52,
			"componentType":5126,
			"count":2,
			"type":"VEC4"
		},
		{
			"bufferView":53,
			"componentType":5126,
			"count":2,
			"type":"VEC3"
		},
		{
			"bufferView":54,
			"componentType":5126,
			"count":2,
			"type":"VEC3"
		},
		{
			"bufferView":55,
			"componentType":5126,
			"count":2,
			"type":"VEC4"
		},
		{
			"bufferView":56,
			"componentType":5126,
			"count":2,
			"type":"VEC3"
		}
	],
	"bufferViews":[
		{
			"buffer":0,
			"byteLength":36696,
			"byteOffset":0,
			"target":34962
		},
		{
			"buffer":0,
			"byteLength":24464,
			"byteOffset":36696,
			"target":34962
		},
		{
			"buffer":0,
			"byteLength":36696,
			"byteOffset":61160,
			"target":34962
		},
		{
			"buffer":0,
			"byteLength":10056,
			"byteOffset":97856,
			"target":34963
		},
		{
			"buffer":0,
			"byteLength":288,
			"byteOffset":107912,
			"target":34962
		},
		{
			"buffer":0,
			"byteLength":192,
			"byteOffset":108200,
			"target":34962
		},
		{
			"buffer":0,
			"byteLength":288,
			"byteOffset":108392,
			"target":34962
		},
		{
			"buffer":0,
			"byteLength":72,
			"byteOffset":108680,
			"target":34963
		},
		{
			"buffer":0,
			"byteLength":432,
			"byteOffset":108752,
			"target":34962
		},
		{
			"buffer":0,
			"byteLength":288,
			"byteOffset":109184,
			"target":34962
		},
		{
			"buffer":0,
			"byteLength":432,
			"byteOffset":109472,
			"target":34962
		},
		{
			"buffer":0,
			"byteLength":120,
			"byteOffset":109904,
			"target":34963
		},
		{
			"buffer":0,
			"byteLength":3372,
			"byteOffset":110024,
			"target":34962
		},
		{
			"buffer":0,
			"byteLength":2248,
			"byteOffset":113396,
			"target":34962
		},
		{
			"buffer":0,
			"byteLength":3372,
			"byteOffset":115644,
			"target":34962
		},
		{
			"buffer":0,
			"byteLength":1188,
			"byteOffset":119016,
			"target":34963
		},
		{
			"buffer":0,
			"byteLength":3744,
			"byteOffset":120204,
			"target":34962
		},
		{
			"buffer":0,
			"byteLength":2496,
			"byteOffset":123948,
			"target":34962
		},
		{
			"buffer":0,
			"byteLength":3744,
			"byteOffset":126444,
			"target":34962
		},
		{
			"buffer":0,
			"byteLength":960,
			"byteOffset":130188,
			"target":34963
		},
		{
			"buffer":0,
			"byteLength":576,
			"byteOffset":131148,
			"target":34962
		},
		{
			"buffer":0,
			"byteLength":384,
			"byteOffset":131724,
			"target":34962
		},
		{
			"buffer":0,
			"byteLength":576,
			"byteOffset":132108,
			"target":34962
		},
		{
			"buffer":0,
			"byteLength":276,
			"byteOffset":132684,
			"target":34963
		},
		{
			"buffer":0,
			"byteLength":3168,
			"byteOffset":132960,
			"target":34962
		},
		{
			"buffer":0,
			"byteLength":2112,
			"byteOffset":136128,
			"target":34962
		},
		{
			"buffer":0,
			"byteLength":3168,
			"byteOffset":138240,
			"target":34962
		},
		{
			"buffer":0,
			"byteLength":960,
			"byteOffset":141408,
			"target":34963
		},
		{
			"buffer":0,
			"byteLength":576,
			"byteOffset":142368,
			"target":34962
		},
		{
			"buffer":0,
			"byteLength":384,
			"byteOffset":142944,
			"target":34962
		},
		{
			"buffer":0,
			"byteLength":576,
			"byteOffset":143328,
			"target":34962
		},
		{
			"buffer":0,
			"byteLength":144,
			"byteOffset":143904,
			"target":34963
		},
		{
			"buffer":0,
			"byteLength":8,
			"byteOffset":144048
		},
		{
			"buffer":0,
			"byteLength":24,
			"byteOffset":144056
		},
		{
			"buffer":0,
			"byteLength":32,
			"byteOffset":144080
		},
		{
			"buffer":0,
			"byteLength":24,
			"byteOffset":144112
		},
		{
			"buffer":0,
			"byteLength":24,
			"byteOffset":144136
		},
		{
			"buffer":0,
			"byteLength":32,
			"byteOffset":144160
		},
		{
			"buffer":0,
			"byteLength":24,
			"byteOffset":144192
		},
		{
			"buffer":0,
			"byteLength":24,
			"byteOffset":144216
		},
		{
			"buffer":0,
			"byteLength":32,
			"byteOffset":144240
		},
		{
			"buffer":0,
			"byteLength":24,
			"byteOffset":144272
		},
		{
			"buffer":0,
			"byteLength":24,
			"byteOffset":144296
		},
		{
			"buffer":0,
			"byteLength":32,
			"byteOffset":144320
		},
		{
			"buffer":0,
			"byteLength":24,
			"byteOffset":144352
		},
		{
			"buffer":0,
			"byteLength":24,
			"byteOffset":144376
		},
		{
			"buffer":0,
			"byteLength":32,
			"byteOffset":144400
		},
		{
			"buffer":0,
			"byteLength":24,
			"byteOffset":144432
		},
		{
			"buffer":0,
			"byteLength":24,
			"byteOffset":144456
		},
		{
			"buffer":0,
			"byteLength":32,
			"byteOffset":144480
		},
		{
			"buffer":0,
			"byteLength":24,
			"byteOffset":144512
		},
		{
			"buffer":0,
			"byteLength":24,
			"byteOffset":144536
		},
		{
			"buffer":0,
			"byteLength":32,
			"byteOffset":144560
		},
		{
			"buffer":0,
			"byteLength":24,
			"byteOffset":144592
		},
		{
			"buffer":0,
			"byteLength":24,
			"byteOffset":144616
		},
		{
			"buffer":0,
			"byteLength":32,
			"byteOffset":144640
		},
		{
			"buffer":0,
			"byteLength":24,
			"byteOffset":144672
		}
	],
	"samplers":[
		{
			"magFilter":9729,
			"minFilter":9987
		}
	],
	"buffers":[
		{
			"byteLength":144696,
			"uri":"OzRacer.bin"
		}
	]
}
