{
	"asset":{
		"generator":"Khronos glTF Blender I/O v3.5.30",
		"version":"2.0"
	},
	"extensionsUsed":[
		"KHR_materials_specular",
		"KHR_materials_ior"
	],
	"scene":0,
	"scenes":[
		{
			"name":"Scene",
			"nodes":[
				0,
				1,
				2,
				3,
				4,
				5,
				6
			]
		}
	],
	"nodes":[
		{
			"mesh":0,
			"name":"Rock"
		},
		{
			"mesh":1,
			"name":"Rock.001"
		},
		{
			"mesh":2,
			"name":"Rock.002"
		},
		{
			"mesh":3,
			"name":"Rock.003"
		},
		{
			"name":"Rock.004",
			"translation":[
				-61.839935302734375,
				-13.322611808776855,
				7.438087463378906
			]
		},
		{
			"mesh":4,
			"name":"Rock.005"
		},
		{
			"mesh":5,
			"name":"Rock.006"
		}
	],
	"materials":[
		{
			"extensions":{
				"KHR_materials_specular":{
					"specularColorFactor":[
						0.03233669482269175,
						0.03233669482269175,
						0.03233669482269175
					]
				},
				"KHR_materials_ior":{
					"ior":1.4500000476837158
				}
			},
			"name":"ErodedSmoothRock",
			"normalTexture":{
				"index":0
			},
			"pbrMetallicRoughness":{
				"baseColorTexture":{
					"index":1
				},
				"metallicRoughnessTexture":{
					"index":2
				}
			}
		},
		{
			"extensions":{
				"KHR_materials_specular":{
					"specularColorFactor":[
						0.03233669482269175,
						0.03233669482269175,
						0.03233669482269175
					]
				},
				"KHR_materials_ior":{
					"ior":1.4500000476837158
				}
			},
			"name":"ErodedSmoothRock.008",
			"normalTexture":{
				"index":3
			},
			"pbrMetallicRoughness":{
				"baseColorTexture":{
					"index":4
				},
				"metallicRoughnessTexture":{
					"index":5
				}
			}
		}
	],
	"meshes":[
		{
			"name":"Cylinder",
			"primitives":[
				{
					"attributes":{
						"POSITION":0,
						"TEXCOORD_0":1,
						"NORMAL":2
					},
					"indices":3,
					"material":0
				}
			]
		},
		{
			"name":"Cylinder.001",
			"primitives":[
				{
					"attributes":{
						"POSITION":4,
						"TEXCOORD_0":5,
						"NORMAL":6
					},
					"indices":7,
					"material":0
				}
			]
		},
		{
			"name":"Cylinder.002",
			"primitives":[
				{
					"attributes":{
						"POSITION":8,
						"TEXCOORD_0":9,
						"NORMAL":10
					},
					"indices":11,
					"material":0
				}
			]
		},
		{
			"name":"Cylinder.003",
			"primitives":[
				{
					"attributes":{
						"POSITION":12,
						"TEXCOORD_0":13,
						"NORMAL":14
					},
					"indices":15,
					"material":0
				}
			]
		},
		{
			"name":"Cylinder.005",
			"primitives":[
				{
					"attributes":{
						"POSITION":16,
						"TEXCOORD_0":17,
						"NORMAL":18
					},
					"indices":19,
					"material":0
				}
			]
		},
		{
			"name":"Cylinder.041",
			"primitives":[
				{
					"attributes":{
						"POSITION":20,
						"TEXCOORD_0":21,
						"NORMAL":22
					},
					"indices":3,
					"material":1
				}
			]
		}
	],
	"textures":[
		{
			"sampler":0,
			"source":0
		},
		{
			"sampler":0,
			"source":1
		},
		{
			"sampler":0,
			"source":2
		},
		{
			"sampler":0,
			"source":0
		},
		{
			"sampler":0,
			"source":1
		},
		{
			"sampler":0,
			"source":3
		}
	],
	"images":[
		{
			"mimeType":"image/png",
			"name":"eroded-smoothed-rockface_normal-ogl",
			"uri":"textures/eroded-smoothed-rockface_normal-ogl.png"
		},
		{
			"mimeType":"image/png",
			"name":"eroded-smoothed-rockface_albedo",
			"uri":"textures/eroded-smoothed-rockface_albedo.png"
		},
		{
			"mimeType":"image/png",
			"name":"eroded-smoothed-rockface_metallic-eroded-smoothed-rockface_roughness",
			"uri":"textures/eroded-smoothed-rockface_metallic-eroded-smoothed-rockface_roughness.png"
		},
		{
			"mimeType":"image/png",
			"name":"eroded-smoothed-rockface_metallic.png-eroded-smoothed-rockface_roughness.png",
			"uri":"textures/eroded-smoothed-rockface_metallic_png-eroded-smoothed-rockface_roughness_png.png"
		}
	],
	"accessors":[
		{
			"bufferView":0,
			"componentType":5126,
			"count":215,
			"max":[
				14.518585205078125,
				32.54783248901367,
				53.416133880615234
			],
			"min":[
				-17.47527313232422,
				-3.5790185928344727,
				-39.53105926513672
			],
			"type":"VEC3"
		},
		{
			"bufferView":1,
			"componentType":5126,
			"count":215,
			"type":"VEC2"
		},
		{
			"bufferView":2,
			"componentType":5126,
			"count":215,
			"type":"VEC3"
		},
		{
			"bufferView":3,
			"componentType":5123,
			"count":852,
			"type":"SCALAR"
		},
		{
			"bufferView":4,
			"componentType":5126,
			"count":227,
			"max":[
				25.037643432617188,
				104.37321472167969,
				-5.429935455322266
			],
			"min":[
				-17.322416305541992,
				-8.607046127319336,
				-50.40144348144531
			],
			"type":"VEC3"
		},
		{
			"bufferView":5,
			"componentType":5126,
			"count":227,
			"type":"VEC2"
		},
		{
			"bufferView":6,
			"componentType":5126,
			"count":227,
			"type":"VEC3"
		},
		{
			"bufferView":7,
			"componentType":5123,
			"count":852,
			"type":"SCALAR"
		},
		{
			"bufferView":8,
			"componentType":5126,
			"count":578,
			"max":[
				11.52965259552002,
				38.62009048461914,
				17.68566131591797
			],
			"min":[
				-11.650465965270996,
				-3.6299009323120117,
				-2.53216552734375
			],
			"type":"VEC3"
		},
		{
			"bufferView":9,
			"componentType":5126,
			"count":578,
			"type":"VEC2"
		},
		{
			"bufferView":10,
			"componentType":5126,
			"count":578,
			"type":"VEC3"
		},
		{
			"bufferView":11,
			"componentType":5123,
			"count":1428,
			"type":"SCALAR"
		},
		{
			"bufferView":12,
			"componentType":5126,
			"count":227,
			"max":[
				78.27062225341797,
				59.34542465209961,
				40.39848327636719
			],
			"min":[
				-79.61933898925781,
				-5.980744361877441,
				-20.96633529663086
			],
			"type":"VEC3"
		},
		{
			"bufferView":13,
			"componentType":5126,
			"count":227,
			"type":"VEC2"
		},
		{
			"bufferView":14,
			"componentType":5126,
			"count":227,
			"type":"VEC3"
		},
		{
			"bufferView":15,
			"componentType":5123,
			"count":822,
			"type":"SCALAR"
		},
		{
			"bufferView":16,
			"componentType":5126,
			"count":1420,
			"max":[
				15.502331733703613,
				45.62606430053711,
				-2.014923095703125
			],
			"min":[
				-12.189404487609863,
				-6.512663841247559,
				-41.23345947265625
			],
			"type":"VEC3"
		},
		{
			"bufferView":17,
			"componentType":5126,
			"count":1420,
			"type":"VEC2"
		},
		{
			"bufferView":18,
			"componentType":5126,
			"count":1420,
			"type":"VEC3"
		},
		{
			"bufferView":19,
			"componentType":5123,
			"count":2232,
			"type":"SCALAR"
		},
		{
			"bufferView":20,
			"componentType":5126,
			"count":215,
			"max":[
				74.92752838134766,
				65.40816497802734,
				74.0561752319336
			],
			"min":[
				-70.1328125,
				-3.0637340545654297,
				-48.74244689941406
			],
			"type":"VEC3"
		},
		{
			"bufferView":21,
			"componentType":5126,
			"count":215,
			"type":"VEC2"
		},
		{
			"bufferView":22,
			"componentType":5126,
			"count":215,
			"type":"VEC3"
		}
	],
	"bufferViews":[
		{
			"buffer":0,
			"byteLength":2580,
			"byteOffset":0,
			"target":34962
		},
		{
			"buffer":0,
			"byteLength":1720,
			"byteOffset":2580,
			"target":34962
		},
		{
			"buffer":0,
			"byteLength":2580,
			"byteOffset":4300,
			"target":34962
		},
		{
			"buffer":0,
			"byteLength":1704,
			"byteOffset":6880,
			"target":34963
		},
		{
			"buffer":0,
			"byteLength":2724,
			"byteOffset":8584,
			"target":34962
		},
		{
			"buffer":0,
			"byteLength":1816,
			"byteOffset":11308,
			"target":34962
		},
		{
			"buffer":0,
			"byteLength":2724,
			"byteOffset":13124,
			"target":34962
		},
		{
			"buffer":0,
			"byteLength":1704,
			"byteOffset":15848,
			"target":34963
		},
		{
			"buffer":0,
			"byteLength":6936,
			"byteOffset":17552,
			"target":34962
		},
		{
			"buffer":0,
			"byteLength":4624,
			"byteOffset":24488,
			"target":34962
		},
		{
			"buffer":0,
			"byteLength":6936,
			"byteOffset":29112,
			"target":34962
		},
		{
			"buffer":0,
			"byteLength":2856,
			"byteOffset":36048,
			"target":34963
		},
		{
			"buffer":0,
			"byteLength":2724,
			"byteOffset":38904,
			"target":34962
		},
		{
			"buffer":0,
			"byteLength":1816,
			"byteOffset":41628,
			"target":34962
		},
		{
			"buffer":0,
			"byteLength":2724,
			"byteOffset":43444,
			"target":34962
		},
		{
			"buffer":0,
			"byteLength":1644,
			"byteOffset":46168,
			"target":34963
		},
		{
			"buffer":0,
			"byteLength":17040,
			"byteOffset":47812,
			"target":34962
		},
		{
			"buffer":0,
			"byteLength":11360,
			"byteOffset":64852,
			"target":34962
		},
		{
			"buffer":0,
			"byteLength":17040,
			"byteOffset":76212,
			"target":34962
		},
		{
			"buffer":0,
			"byteLength":4464,
			"byteOffset":93252,
			"target":34963
		},
		{
			"buffer":0,
			"byteLength":2580,
			"byteOffset":97716,
			"target":34962
		},
		{
			"buffer":0,
			"byteLength":1720,
			"byteOffset":100296,
			"target":34962
		},
		{
			"buffer":0,
			"byteLength":2580,
			"byteOffset":102016,
			"target":34962
		}
	],
	"samplers":[
		{
			"magFilter":9729,
			"minFilter":9987
		}
	],
	"buffers":[
		{
			"byteLength":104596,
			"uri":"rocks.bin"
		}
	]
}
