{
	"asset":{
		"generator":"Khronos glTF Blender I/O v3.5.30",
		"version":"2.0"
	},
	"extensionsUsed":[
		"KHR_materials_specular",
		"KHR_materials_ior"
	],
	"scene":0,
	"scenes":[
		{
			"name":"Scene",
			"nodes":[
				0,
				1,
				2,
				3,
				4,
				5,
				6,
				7,
				8,
				9,
				10
			]
		}
	],
	"nodes":[
		{
			"mesh":0,
			"name":"Rock",
			"translation":[
				-61.839935302734375,
				-13.322611808776855,
				7.438087463378906
			]
		},
		{
			"mesh":1,
			"name":"Rock.001",
			"rotation":[
				0,
				-0.6496097445487976,
				0,
				0.7602679133415222
			],
			"translation":[
				-338.97576904296875,
				4.047449111938477,
				-493.7586364746094
			]
		},
		{
			"mesh":2,
			"name":"Rock.002",
			"rotation":[
				0,
				0.21226848661899567,
				0,
				0.9772114157676697
			],
			"translation":[
				17.90185546875,
				-13.322611808776855,
				7.438087463378906
			]
		},
		{
			"mesh":3,
			"name":"Rock.003",
			"rotation":[
				0,
				0.685360848903656,
				0,
				0.7282036542892456
			],
			"translation":[
				190.0455322265625,
				-6.088269233703613,
				-116.60224151611328
			]
		},
		{
			"name":"Rock.004",
			"translation":[
				-61.839935302734375,
				-13.322611808776855,
				7.438087463378906
			]
		},
		{
			"mesh":4,
			"name":"Rock.005",
			"translation":[
				-61.839935302734375,
				-13.322611808776855,
				7.438087463378906
			]
		},
		{
			"mesh":1,
			"name":"Rock.006",
			"rotation":[
				0,
				-0.6496097445487976,
				0,
				0.7602679133415222
			],
			"translation":[
				-338.97576904296875,
				4.047449111938477,
				-493.7586364746094
			]
		},
		{
			"mesh":3,
			"name":"Rock.007",
			"rotation":[
				0,
				-0.1915159672498703,
				0,
				0.9814894795417786
			],
			"translation":[
				-572.590576171875,
				-6.088269233703613,
				-439.8932800292969
			]
		},
		{
			"mesh":0,
			"name":"Rock.008",
			"translation":[
				401.15301513671875,
				-13.322611808776855,
				-912.25390625
			]
		},
		{
			"mesh":2,
			"name":"Rock.009",
			"rotation":[
				0,
				0.21226848661899567,
				0,
				0.9772114157676697
			],
			"translation":[
				817.3717651367188,
				-13.322611808776855,
				464.1123352050781
			]
		},
		{
			"mesh":1,
			"name":"Rock.010",
			"rotation":[
				0,
				-0.6496097445487976,
				0,
				0.7602679133415222
			],
			"translation":[
				-838.8109741210938,
				4.047449111938477,
				440.9040832519531
			]
		}
	],
	"materials":[
		{
			"doubleSided":true,
			"extensions":{
				"KHR_materials_specular":{
					"specularColorFactor":[
						0.03233669482269175,
						0.03233669482269175,
						0.03233669482269175
					]
				},
				"KHR_materials_ior":{
					"ior":1.4500000476837158
				}
			},
			"name":"ErodedSmoothRock",
			"normalTexture":{
				"index":0
			},
			"pbrMetallicRoughness":{
				"baseColorTexture":{
					"index":1
				},
				"metallicRoughnessTexture":{
					"index":2
				}
			}
		}
	],
	"meshes":[
		{
			"name":"Cylinder",
			"primitives":[
				{
					"attributes":{
						"POSITION":0,
						"TEXCOORD_0":1,
						"NORMAL":2
					},
					"indices":3,
					"material":0
				}
			]
		},
		{
			"name":"Cylinder.001",
			"primitives":[
				{
					"attributes":{
						"POSITION":4,
						"TEXCOORD_0":5,
						"NORMAL":6
					},
					"indices":7,
					"material":0
				}
			]
		},
		{
			"name":"Cylinder.002",
			"primitives":[
				{
					"attributes":{
						"POSITION":8,
						"TEXCOORD_0":9,
						"NORMAL":10
					},
					"indices":11,
					"material":0
				}
			]
		},
		{
			"name":"Cylinder.003",
			"primitives":[
				{
					"attributes":{
						"POSITION":12,
						"TEXCOORD_0":13,
						"NORMAL":14
					},
					"indices":15,
					"material":0
				}
			]
		},
		{
			"name":"Cylinder.005",
			"primitives":[
				{
					"attributes":{
						"POSITION":16,
						"TEXCOORD_0":17,
						"NORMAL":18
					},
					"indices":19,
					"material":0
				}
			]
		}
	],
	"textures":[
		{
			"sampler":0,
			"source":0
		},
		{
			"sampler":0,
			"source":1
		},
		{
			"sampler":0,
			"source":2
		}
	],
	"images":[
		{
			"mimeType":"image/png",
			"name":"eroded-smoothed-rockface_normal-ogl",
			"uri":"textures/eroded-smoothed-rockface_normal-ogl.png"
		},
		{
			"mimeType":"image/png",
			"name":"eroded-smoothed-rockface_albedo",
			"uri":"textures/eroded-smoothed-rockface_albedo.png"
		},
		{
			"mimeType":"image/png",
			"name":"eroded-smoothed-rockface_metallic-eroded-smoothed-rockface_roughness",
			"uri":"textures/eroded-smoothed-rockface_metallic-eroded-smoothed-rockface_roughness.png"
		}
	],
	"accessors":[
		{
			"bufferView":0,
			"componentType":5126,
			"count":215,
			"max":[
				13.890762329101562,
				25.59807586669922,
				45.97804641723633
			],
			"min":[
				-18.10309600830078,
				-10.528776168823242,
				-46.969146728515625
			],
			"type":"VEC3"
		},
		{
			"bufferView":1,
			"componentType":5126,
			"count":215,
			"type":"VEC2"
		},
		{
			"bufferView":2,
			"componentType":5126,
			"count":215,
			"type":"VEC3"
		},
		{
			"bufferView":3,
			"componentType":5123,
			"count":852,
			"type":"SCALAR"
		},
		{
			"bufferView":4,
			"componentType":5126,
			"count":227,
			"max":[
				18.968019485473633,
				80.05339813232422,
				20.74031639099121
			],
			"min":[
				-24.72001838684082,
				-32.92686462402344,
				-21.187393188476562
			],
			"type":"VEC3"
		},
		{
			"bufferView":5,
			"componentType":5126,
			"count":227,
			"type":"VEC2"
		},
		{
			"bufferView":6,
			"componentType":5126,
			"count":227,
			"type":"VEC3"
		},
		{
			"bufferView":7,
			"componentType":5123,
			"count":852,
			"type":"SCALAR"
		},
		{
			"bufferView":8,
			"componentType":5126,
			"count":578,
			"max":[
				9.76852035522461,
				35.0490608215332,
				9.447430610656738
			],
			"min":[
				-12.730795860290527,
				-7.200929641723633,
				-9.651078224182129
			],
			"type":"VEC3"
		},
		{
			"bufferView":9,
			"componentType":5126,
			"count":578,
			"type":"VEC2"
		},
		{
			"bufferView":10,
			"componentType":5126,
			"count":578,
			"type":"VEC3"
		},
		{
			"bufferView":11,
			"componentType":5123,
			"count":1428,
			"type":"SCALAR"
		},
		{
			"bufferView":12,
			"componentType":5126,
			"count":263,
			"max":[
				25.117889404296875,
				46.28757095336914,
				77.66715240478516
			],
			"min":[
				-34.54737091064453,
				-19.038599014282227,
				-80.7122802734375
			],
			"type":"VEC3"
		},
		{
			"bufferView":13,
			"componentType":5126,
			"count":263,
			"type":"VEC2"
		},
		{
			"bufferView":14,
			"componentType":5126,
			"count":263,
			"type":"VEC3"
		},
		{
			"bufferView":15,
			"componentType":5123,
			"count":822,
			"type":"SCALAR"
		},
		{
			"bufferView":16,
			"componentType":5126,
			"count":1422,
			"max":[
				13.845868110656738,
				42.05503463745117,
				-312.9196472167969
			],
			"min":[
				-13.845868110656738,
				-10.08369255065918,
				-352.13818359375
			],
			"type":"VEC3"
		},
		{
			"bufferView":17,
			"componentType":5126,
			"count":1422,
			"type":"VEC2"
		},
		{
			"bufferView":18,
			"componentType":5126,
			"count":1422,
			"type":"VEC3"
		},
		{
			"bufferView":19,
			"componentType":5123,
			"count":2232,
			"type":"SCALAR"
		}
	],
	"bufferViews":[
		{
			"buffer":0,
			"byteLength":2580,
			"byteOffset":0,
			"target":34962
		},
		{
			"buffer":0,
			"byteLength":1720,
			"byteOffset":2580,
			"target":34962
		},
		{
			"buffer":0,
			"byteLength":2580,
			"byteOffset":4300,
			"target":34962
		},
		{
			"buffer":0,
			"byteLength":1704,
			"byteOffset":6880,
			"target":34963
		},
		{
			"buffer":0,
			"byteLength":2724,
			"byteOffset":8584,
			"target":34962
		},
		{
			"buffer":0,
			"byteLength":1816,
			"byteOffset":11308,
			"target":34962
		},
		{
			"buffer":0,
			"byteLength":2724,
			"byteOffset":13124,
			"target":34962
		},
		{
			"buffer":0,
			"byteLength":1704,
			"byteOffset":15848,
			"target":34963
		},
		{
			"buffer":0,
			"byteLength":6936,
			"byteOffset":17552,
			"target":34962
		},
		{
			"buffer":0,
			"byteLength":4624,
			"byteOffset":24488,
			"target":34962
		},
		{
			"buffer":0,
			"byteLength":6936,
			"byteOffset":29112,
			"target":34962
		},
		{
			"buffer":0,
			"byteLength":2856,
			"byteOffset":36048,
			"target":34963
		},
		{
			"buffer":0,
			"byteLength":3156,
			"byteOffset":38904,
			"target":34962
		},
		{
			"buffer":0,
			"byteLength":2104,
			"byteOffset":42060,
			"target":34962
		},
		{
			"buffer":0,
			"byteLength":3156,
			"byteOffset":44164,
			"target":34962
		},
		{
			"buffer":0,
			"byteLength":1644,
			"byteOffset":47320,
			"target":34963
		},
		{
			"buffer":0,
			"byteLength":17064,
			"byteOffset":48964,
			"target":34962
		},
		{
			"buffer":0,
			"byteLength":11376,
			"byteOffset":66028,
			"target":34962
		},
		{
			"buffer":0,
			"byteLength":17064,
			"byteOffset":77404,
			"target":34962
		},
		{
			"buffer":0,
			"byteLength":4464,
			"byteOffset":94468,
			"target":34963
		}
	],
	"samplers":[
		{
			"magFilter":9729,
			"minFilter":9987
		}
	],
	"buffers":[
		{
			"byteLength":98932,
			"uri":"rocks.bin"
		}
	]
}
