{
	"asset":{
		"generator":"Khronos glTF Blender I/O v3.5.30",
		"version":"2.0"
	},
	"extensionsUsed":[
		"KHR_materials_specular",
		"KHR_materials_ior"
	],
	"scene":0,
	"scenes":[
		{
			"name":"Scene",
			"nodes":[
				0,
				1,
				2,
				3,
				4
			]
		}
	],
	"nodes":[
		{
			"mesh":0,
			"name":"Rock",
			"translation":[
				-467.2515563964844,
				0,
				0
			]
		},
		{
			"mesh":1,
			"name":"Rock.001",
			"translation":[
				-332.48992919921875,
				0,
				0
			]
		},
		{
			"mesh":2,
			"name":"Rock.002",
			"translation":[
				-67.03411102294922,
				0,
				0
			]
		},
		{
			"mesh":3,
			"name":"Rock.003",
			"translation":[
				-135.14942932128906,
				0,
				0
			]
		},
		{
			"mesh":4,
			"name":"Rock.004",
			"translation":[
				164.34169006347656,
				0,
				0
			]
		}
	],
	"materials":[
		{
			"extensions":{
				"KHR_materials_specular":{
					"specularColorFactor":[
						0.03233669482269175,
						0.03233669482269175,
						0.03233669482269175
					]
				},
				"KHR_materials_ior":{
					"ior":1.4500000476837158
				}
			},
			"name":"ErodedSmoothRock",
			"normalTexture":{
				"index":0
			},
			"pbrMetallicRoughness":{
				"baseColorTexture":{
					"index":1
				},
				"metallicRoughnessTexture":{
					"index":2
				}
			}
		}
	],
	"meshes":[
		{
			"name":"Cylinder",
			"primitives":[
				{
					"attributes":{
						"POSITION":0,
						"TEXCOORD_0":1,
						"NORMAL":2
					},
					"indices":3,
					"material":0
				}
			]
		},
		{
			"name":"Cylinder.001",
			"primitives":[
				{
					"attributes":{
						"POSITION":4,
						"TEXCOORD_0":5,
						"NORMAL":6
					},
					"indices":7,
					"material":0
				}
			]
		},
		{
			"name":"Cylinder.002",
			"primitives":[
				{
					"attributes":{
						"POSITION":8,
						"TEXCOORD_0":9,
						"NORMAL":10
					},
					"indices":11,
					"material":0
				}
			]
		},
		{
			"name":"Cylinder.003",
			"primitives":[
				{
					"attributes":{
						"POSITION":12,
						"TEXCOORD_0":13,
						"NORMAL":14
					},
					"indices":15,
					"material":0
				}
			]
		},
		{
			"name":"Cylinder.005",
			"primitives":[
				{
					"attributes":{
						"POSITION":16,
						"TEXCOORD_0":17,
						"NORMAL":18
					},
					"indices":19,
					"material":0
				}
			]
		}
	],
	"textures":[
		{
			"sampler":0,
			"source":0
		},
		{
			"sampler":0,
			"source":1
		},
		{
			"sampler":0,
			"source":2
		}
	],
	"images":[
		{
			"mimeType":"image/png",
			"name":"eroded-smoothed-rockface_normal-ogl",
			"uri":"textures/eroded-smoothed-rockface_normal-ogl.png"
		},
		{
			"mimeType":"image/png",
			"name":"eroded-smoothed-rockface_albedo",
			"uri":"textures/eroded-smoothed-rockface_albedo.png"
		},
		{
			"mimeType":"image/png",
			"name":"eroded-smoothed-rockface_metallic-eroded-smoothed-rockface_roughness",
			"uri":"textures/eroded-smoothed-rockface_metallic-eroded-smoothed-rockface_roughness.png"
		}
	],
	"accessors":[
		{
			"bufferView":0,
			"componentType":5126,
			"count":215,
			"max":[
				23.306377410888672,
				49.259559631347656,
				75.30012512207031
			],
			"min":[
				-26.644023895263672,
				-7.143477439880371,
				-69.81365966796875
			],
			"type":"VEC3"
		},
		{
			"bufferView":1,
			"componentType":5126,
			"count":215,
			"type":"VEC2"
		},
		{
			"bufferView":2,
			"componentType":5126,
			"count":215,
			"type":"VEC3"
		},
		{
			"bufferView":3,
			"componentType":5123,
			"count":852,
			"type":"SCALAR"
		},
		{
			"bufferView":4,
			"componentType":5126,
			"count":227,
			"max":[
				23.629838943481445,
				104.37321472167969,
				21.80564308166504
			],
			"min":[
				-18.730220794677734,
				-8.607046127319336,
				-23.165864944458008
			],
			"type":"VEC3"
		},
		{
			"bufferView":5,
			"componentType":5126,
			"count":227,
			"type":"VEC2"
		},
		{
			"bufferView":6,
			"componentType":5126,
			"count":227,
			"type":"VEC3"
		},
		{
			"bufferView":7,
			"componentType":5123,
			"count":852,
			"type":"SCALAR"
		},
		{
			"bufferView":8,
			"componentType":5126,
			"count":578,
			"max":[
				11.617222785949707,
				38.62009048461914,
				10.177371978759766
			],
			"min":[
				-11.562895774841309,
				-3.6299009323120117,
				-10.040454864501953
			],
			"type":"VEC3"
		},
		{
			"bufferView":9,
			"componentType":5126,
			"count":578,
			"type":"VEC2"
		},
		{
			"bufferView":10,
			"componentType":5126,
			"count":578,
			"type":"VEC3"
		},
		{
			"bufferView":11,
			"componentType":5123,
			"count":1428,
			"type":"SCALAR"
		},
		{
			"bufferView":12,
			"componentType":5126,
			"count":227,
			"max":[
				34.268592834472656,
				59.34542465209961,
				79.56549835205078
			],
			"min":[
				-25.40045928955078,
				-5.980744361877441,
				-78.8142318725586
			],
			"type":"VEC3"
		},
		{
			"bufferView":13,
			"componentType":5126,
			"count":227,
			"type":"VEC2"
		},
		{
			"bufferView":14,
			"componentType":5126,
			"count":227,
			"type":"VEC3"
		},
		{
			"bufferView":15,
			"componentType":5123,
			"count":822,
			"type":"SCALAR"
		},
		{
			"bufferView":16,
			"componentType":5126,
			"count":1420,
			"max":[
				13.024495124816895,
				45.62606430053711,
				18.163604736328125
			],
			"min":[
				-14.667241096496582,
				-6.512663841247559,
				-21.054931640625
			],
			"type":"VEC3"
		},
		{
			"bufferView":17,
			"componentType":5126,
			"count":1420,
			"type":"VEC2"
		},
		{
			"bufferView":18,
			"componentType":5126,
			"count":1420,
			"type":"VEC3"
		},
		{
			"bufferView":19,
			"componentType":5123,
			"count":2232,
			"type":"SCALAR"
		}
	],
	"bufferViews":[
		{
			"buffer":0,
			"byteLength":2580,
			"byteOffset":0,
			"target":34962
		},
		{
			"buffer":0,
			"byteLength":1720,
			"byteOffset":2580,
			"target":34962
		},
		{
			"buffer":0,
			"byteLength":2580,
			"byteOffset":4300,
			"target":34962
		},
		{
			"buffer":0,
			"byteLength":1704,
			"byteOffset":6880,
			"target":34963
		},
		{
			"buffer":0,
			"byteLength":2724,
			"byteOffset":8584,
			"target":34962
		},
		{
			"buffer":0,
			"byteLength":1816,
			"byteOffset":11308,
			"target":34962
		},
		{
			"buffer":0,
			"byteLength":2724,
			"byteOffset":13124,
			"target":34962
		},
		{
			"buffer":0,
			"byteLength":1704,
			"byteOffset":15848,
			"target":34963
		},
		{
			"buffer":0,
			"byteLength":6936,
			"byteOffset":17552,
			"target":34962
		},
		{
			"buffer":0,
			"byteLength":4624,
			"byteOffset":24488,
			"target":34962
		},
		{
			"buffer":0,
			"byteLength":6936,
			"byteOffset":29112,
			"target":34962
		},
		{
			"buffer":0,
			"byteLength":2856,
			"byteOffset":36048,
			"target":34963
		},
		{
			"buffer":0,
			"byteLength":2724,
			"byteOffset":38904,
			"target":34962
		},
		{
			"buffer":0,
			"byteLength":1816,
			"byteOffset":41628,
			"target":34962
		},
		{
			"buffer":0,
			"byteLength":2724,
			"byteOffset":43444,
			"target":34962
		},
		{
			"buffer":0,
			"byteLength":1644,
			"byteOffset":46168,
			"target":34963
		},
		{
			"buffer":0,
			"byteLength":17040,
			"byteOffset":47812,
			"target":34962
		},
		{
			"buffer":0,
			"byteLength":11360,
			"byteOffset":64852,
			"target":34962
		},
		{
			"buffer":0,
			"byteLength":17040,
			"byteOffset":76212,
			"target":34962
		},
		{
			"buffer":0,
			"byteLength":4464,
			"byteOffset":93252,
			"target":34963
		}
	],
	"samplers":[
		{
			"magFilter":9729,
			"minFilter":9987
		}
	],
	"buffers":[
		{
			"byteLength":97716,
			"uri":"rocks.bin"
		}
	]
}
